<?xml version="1.0" encoding="UTF-8"?>
<svg id="Layer_1" data-name="Layer 1" xmlns="http://www.w3.org/2000/svg" viewBox="0 0 1080 1080">
  <defs>
    <style>
      .cls-1 {
        fill: #e1ded4;
        stroke-width: 0px;
      }
    </style>
  </defs>
  <path class="cls-1" d="m354.97,599.09c0-.31.05-.62.05-.94s-.05-.62-.05-.94.06-.62.06-.94-.09-.62-.09-.94.04-.62.04-.94-.03-.62-.03-.94.02-.62.02-.94.02-.62.02-.94-.02-.62-.02-.94.02-.62.02-.94.02-.62.02-.94-.01-.62-.01-.94-.06-.62-.06-.94.04-.62.04-.94,0-.62,0-.94c0-.31-.04-.62-.04-.94s.06-.62.06-.94-.03-.62-.03-.94-.01-.62-.01-.94.04-.62.04-.94-.03-.62-.03-.94.04-.62.04-.94-.05-.62-.05-.94.01-.62.01-.94-.01-.62-.01-.94,0-.62,0-.94.04-.62.04-.94-.05-.62-.05-.94.02-.62.02-.94,0-.62,0-.94,0-.62,0-.94.07-.62.07-.94-.09-.62-.09-.94.05-.62.05-.94.01-.62.01-.94-.06-.62-.06-.94.03-.62.03-.94.05-.62.05-.94-.07-.62-.07-.94,0-.62,0-.94-.02-.62-.02-.94.03-.62.03-.94.06-.62.06-.94,0-.62,0-.94-.07-.62-.07-.94.02-.62.02-.94.03-.62.03-.94,0-.62,0-.94,0-.62,0-.94-.01-.62-.01-.94.04-.62.04-.94-.09-.62-.09-.94.07-.62.07-.94-.07-.62-.07-.94.04-.62.04-.94,0-.62,0-.94-.05-.62-.05-.94.07-.62.07-.94.01-.62.01-.94,0-.62,0-.94-.07-.62-.07-.94.02-.62.02-.94,0-.62,0-.94-.02-.62-.02-.94.06-.62.06-.94.01-.62.01-.94-.09-.62-.09-.94.02-.62.02-.94.06-.62.06-.94-.04-.62-.04-.94.05-.62.05-.94-.06-.62-.06-.94-.04-.62-.04-.94.05-.62.05-.94.02-.62.02-.94,0-.62,0-.94.03-.62.03-.94,0-.62,0-.94-.08-.62-.08-.94.06-.62.06-.94-.06-.62-.06-.94.05-.62.05-.94-.03-.62-.03-.94-.02-.62-.02-.94c0-.31.08-.62.08-.94s-.04-.62-.04-.94-.03-.62-.03-.94.06-.62.06-.94-.04-.62-.04-.94.02-.62.02-.94,0-.62,0-.94.02-.62.02-.94-.02-.62-.02-.94-.03-.62-.03-.94.07-.62.07-.94-.03-.62-.03-.94-.03-.62-.03-.94,0-.62,0-.94-.03-.62-.03-.94.06-.62.06-.94.03-.62.03-.94-.01-.62-.01-.94-.08-.62-.08-.94.02-.62.02-.94.06-.62.06-.94,0-.62,0-.94-.08-.62-.08-.94.09-.62.09-.94-.05-.62-.05-.94-.04-.62-.04-.94.06-.62.06-.94-.03-.62-.03-.94,0-.62,0-.94.04-.62.04-.94-.04-.62-.04-.94.02-.62.02-.94.01-.62.01-.94.03-.62.03-.94-.04-.62-.04-.94.02-.62.02-.94-.04-.62-.04-.94.07-.62.07-.94-.02-.62-.02-.94-.01-.62-.01-.94-.02-.62-.02-.94.02-.62.02-.94-.04-.62-.04-.94.04-.62.04-.94-.03-.62-.03-.94,0-.62,0-.94.05-.62.05-.94-.08-.62-.08-.94.07-.62.07-.94-.07-.62-.07-.94.04-.62.04-.94-.04-.62-.04-.94.05-.62.05-.94c0-.31.04-.62.04-.94s-.09-.62-.09-.94,0-.62,0-.94.04-.62.04-.94,0-.62,0-.94-.02-.62-.02-.94.06-.62.06-.94-.07-.62-.07-.94.03-.62.03-.94-.01-.62-.01-.94.03-.62.03-.94-.06-.62-.06-.94.05-.62.05-.94-.01-.62-.01-.94-.03-.62-.03-.94-.01-.62-.01-.94.07-.62.07-.94,0-.62,0-.94-.04-.62-.04-.94.05-.62.05-.94c0-.31,0-.62,0-.94s0-.62,0-.94-.01-.62-.01-.94.04-.62.04-.94,0-.62,0-.94,0-.62,0-.94-.07-.62-.07-.94,0-.62,0-.94c0-.31,0-.62,0-.94s0-.62,0-.94c0-.31,0-.62,0-.94s0-.62,0-.94-.01-.62-.01-.94.03-.62.03-.94.03-.62.03-.94-.05-.62-.05-.94.05-.62.05-.94,0-.62,0-.94-.01-.62-.01-.94-.04-.62-.04-.94.03-.62.03-.94.06-.62.06-.94-.09-.62-.09-.94.01-.62.01-.94.03-.62.03-.94.01-.62.01-.94-.02-.62-.02-.94.03-.62.03-.94-.04-.62-.04-.94.06-.62.06-.94-.07-.62-.07-.94.04-.62.04-.94,0-.62,0-.94-.03-.62-.03-.94.02-.62.02-.94.05-.62.05-.94-.07-.62-.07-.94,0-.62,0-.94.07-.62.07-.94-.02-.62-.02-.94.02-.62.02-.94c0-.31,0-.62,0-.94s-.06-.62-.06-.94.04-.62.04-.94.02-.62.02-.94-.04-.62-.04-.94-.05-.62-.05-.94.05-.62.05-.94.02-.62.02-.94-.01-.62-.01-.94.03-.62.03-.94-.04-.62-.04-.94-.04-.62-.04-.94.04-.62.04-.94,0-.62,0-.94.03-.62.03-.94,0-.62,0-.94-.06-.62-.06-.94.06-.62.06-.94.02-.62.02-.94-.07-.62-.07-.94.03-.62.03-.94,0-.62,0-.94-.04-.62-.04-.94.07-.62.07-.94-.07-.62-.07-.94.07-.62.07-.94,0-.62,0-.94,0-.62,0-.94.03-.62.03-.94,0-.62,0-.94-.03-.62-.03-.94.02-.62.02-.94-.05-.62-.05-.94-.03-.62-.03-.94.03-.62.03-.94.01-.62.01-.94.04-.62.04-.94c0-.31,0-.62,0-.94s0-.62,0-.94-.05-.62-.05-.94-.02-.62-.02-.94.06-.62.06-.94,0-.62,0-.94-.06-.62-.06-.94-.01-.62-.01-.94.1-.62.1-.94-.04-.62-.04-.94,0-.62,0-.94-.05-.62-.05-.94,0-.62,0-.94,0-.62,0-.94.04-.62.04-.94-.04-.62-.04-.94.06-.62.06-.94,0-.62,0-.94-.05-.62-.05-.94,0-.62,0-.94.06-.62.06-.94-.03-.62-.03-.94.03-.62.03-.94,0-.62,0-.94.01-.62.01-.94-.05-.62-.05-.94.06-.62.06-.94,0-.62,0-.94-.06-.62-.06-.94.02-.62.02-.94.05-.62.05-.94,0-.62,0-.94-.04-.62-.04-.94,0-.62,0-.94,0-.62,0-.94-.04-.62-.04-.94.07-.62.07-.94-.03-.62-.03-.94.01-.62.01-.94,0-.62,0-.94-.03-.62-.03-.94.03-.62.03-.94-.02-.62-.02-.94-.02-.62-.02-.94.05-.62.05-.94.01-.62.01-.94,0-.62,0-.94.02-.62.02-.94-.06-.62-.06-.94.02-.62.02-.94,0-.62,0-.94.04-.62.04-.94-.06-.62-.06-.94,0-.62,0-.94-.02-.62-.02-.94c0-.31-.01-.62-.01-.94s.01-.62.01-.94-.02-.62-.02-.94.08-.62.08-.94-.03-.62-.03-.94.03-.62.03-.94-.08-.62-.08-.94.03-.62.03-.94.01-.62.01-.94-.01-.62-.01-.94.04-.62.04-.94-.07-.62-.07-.94,0-.62,0-.94.07-.62.07-.94-.06-.62-.06-.94c0-.31.03-.62.03-.94s-.06-.62-.06-.94.07-.62.07-.94c0-.31-.07-.62-.07-.94s.01-.62.01-.94.01-.62.01-.94c0-.31,0-.62,0-.94s.01-.62.01-.94,0-.62,0-.94-.02-.62-.02-.94c.12-.3.23-.6.36-.89s.27-.59.41-.87.29-.58.44-.86.32-.56.49-.83.33-.56.5-.82.37-.53.56-.78.4-.5.61-.75.46-.45.68-.68.44-.46.67-.68.46-.44.7-.65.47-.43.72-.63.48-.43.74-.61.55-.33.82-.5.55-.33.83-.48.59-.24.88-.37.54-.35.84-.47.62-.16.92-.27c.31,0,.62-.05.93-.05s.62,0,.93,0,.62.03.93.03.62-.03.93-.03.62-.04.93-.04.62.06.93.06.62-.06.93-.06.62.07.93.07.62.03.93.03.62-.02.93-.02.62-.07.93-.07.62.04.93.04.62,0,.93,0,.62-.02.93-.02.62.06.93.06.62-.07.93-.07.62.02.93.02.62,0,.93,0,.62,0,.93,0,.62.05.93.05.62-.07.93-.07.62-.01.93-.01.62.01.93.01.62.02.93.02.62-.03.93-.03.62,0,.93,0,.62.05.93.05.62-.07.93-.07.62-.02.93-.02.62.08.93.08.62,0,.93,0,.62-.05.93-.05.62.05.93.05.62-.08.93-.08.62,0,.93,0,.62,0,.93,0,.62.01.93.01.62-.02.93-.02.62,0,.93,0,.62.04.93.04.62.03.93.03.62-.04.93-.04.62.04.93.04.62,0,.93,0,.62.03.93.03.62-.05.93-.05.62.04.93.04.62-.05.93-.05.62.03.93.03.62.03.93.03.62-.02.93-.02.62-.06.93-.06.62.02.93.02.62,0,.93,0,.62.03.93.03.62,0,.93,0,.62-.04.93-.04.62,0,.93,0,.62.02.93.02.62.06.93.06.62-.03.93-.03.62.01.93.01.62.02.93.02.62,0,.93,0,.62-.02.93-.02.62-.01.93-.01.62-.01.93-.01.62.02.93.02.62-.04.93-.04.62-.02.93-.02.62.05.93.05.62-.02.93-.02.62,0,.93,0,.62-.02.93-.02.62.04.93.04.62-.05.93-.05.62.03.93.03.62.05.93.05.62-.04.93-.04.62,0,.93,0,.62,0,.93,0,.62-.02.93-.02.62-.03.93-.03.62.04.93.04.62-.04.93-.04.62.03.93.03.62.03.93.03.62-.02.93-.02.62-.02.93-.02.62.04.93.04.62,0,.93,0,.62.04.93.04.62-.09.93-.09.62.01.93.01.62.03.93.03.62-.03.93-.03.62.08.93.08.62,0,.93,0,.62-.01.93-.01.62-.04.93-.04.62.03.93.03.62-.05.93-.05.62.02.93.02.62,0,.93,0,.62.02.93.02.62.03.93.03.62-.02.93-.02.62,0,.93,0,.62,0,.93,0,.62-.04.93-.04.62.03.93.03.62-.04.93-.04.62,0,.93,0,.62.08.93.08.62-.03.93-.03.62-.04.93-.04.62,0,.93,0,.62,0,.93,0,.62.02.93.02.62.04.93.04.62-.01.93-.01.62-.04.93-.04.62.01.93.01.62.01.93.01.62.03.93.03.62-.06.93-.06.62,0,.93,0,.62-.01.93-.01.62.04.93.04.62,0,.93,0,.62-.03.93-.03.62,0,.93,0,.62,0,.93,0,.62.03.93.03.62,0,.93,0,.62,0,.93,0,.62.06.93.06.62-.04.93-.04.62-.04.93-.04.62,0,.93,0,.62.06.93.06.62-.08.93-.08.62.02.93.02.62.05.93.05.64-.05.95-.05c.25.25.5.49.76.65.29.18.59.33.9.43s.66.1.99.13.66.11.99.11.66-.09.99-.11.67.02,1,0,.67-.08,1-.06c.31.02.62.06.93.07s.62.03.93.05.62,0,.93.03.62.05.93.07.62.04.93.05.62.1.93.12.62.03.93.05.62.06.93.08.62.04.93.06.63-.03.94,0,.62.12.93.14.63-.04.94-.02.62.07.93.09.62.07.93.1.62.06.93.09.62.1.93.13.62.06.93.09.62.06.93.08.62.02.93.05.62.06.93.09.62.01.93.05.62.1.93.13.61.12.92.16.62.03.93.07.62.1.92.13.63,0,.94.04.61.12.92.16.62.07.93.11.62.1.92.14.62.03.93.07.61.16.92.2.62.06.93.11.62.09.92.13.62.1.92.14.61.12.92.17.63.03.93.08.6.17.91.22.62.08.92.13.61.11.92.16.63.03.93.08.6.19.91.24.61.12.92.18.62.1.92.15.61.11.92.17.61.11.92.17.62.1.92.16.62.09.92.15.6.18.9.24.62.1.92.16.61.13.91.2.6.15.91.22.61.13.91.2.6.17.9.24.61.12.91.19.62.09.92.16.6.17.9.24.61.13.91.21.61.14.91.22.6.17.9.24.61.14.91.22.6.17.9.25.6.17.9.25.59.21.89.29.61.12.91.2.58.23.88.31c.3.09.59.2.89.29s.6.17.9.26.62.12.92.21.58.24.88.34.6.19.89.29.58.23.88.33.6.19.89.29.6.18.89.29.57.26.86.37.59.2.88.32.56.29.85.4.58.24.87.36.6.2.88.32.56.28.84.41.57.25.86.38.59.22.87.36.55.31.83.45.54.31.82.45.59.23.86.37.53.33.81.48.56.27.84.42.53.33.81.48.56.28.83.44.53.33.8.49.54.32.8.48.55.3.81.47.49.39.75.56.56.29.81.46.49.4.74.57.5.37.76.55.53.33.78.52.48.39.73.58.53.34.77.53.46.42.71.61.49.38.74.58.48.39.72.59.48.39.72.6.48.39.72.6.49.39.72.6.48.4.71.61.4.48.63.69.48.4.71.61.44.44.66.66.46.42.68.65.43.45.65.68.4.48.61.71.4.48.61.71.4.47.61.71.41.47.61.71.42.46.62.7.35.52.54.76.39.48.58.73.44.45.63.69.35.52.53.77.33.53.51.78.43.46.61.71.33.53.5.79.33.53.5.79.33.53.49.79.36.51.52.78.35.52.51.78.32.53.48.8.26.57.42.84.3.54.45.82.34.53.48.8.26.57.4.84.35.52.49.8.23.58.36.86.25.57.39.85.28.55.41.83.24.57.37.85.32.54.44.82.24.57.36.86.23.58.35.86.25.57.37.86.13.62.25.91.31.55.42.84.15.61.25.9.27.56.37.86.14.61.24.91.24.57.34.87.15.6.24.9.17.6.26.9.24.58.33.88.11.62.19.92.23.58.31.89.15.6.23.91.17.6.24.9.16.6.23.91.13.61.2.92.12.62.19.92c.07.31.1.62.16.93s.18.6.25.91.16.61.22.91.07.63.13.93.1.62.16.93.18.6.24.91.05.63.11.94.16.61.22.92.1.62.15.93.1.62.15.93.12.61.18.92.08.62.13.93.12.61.17.92.06.63.11.93.11.62.16.93.08.62.12.93.14.61.19.92.12.62.17.93,0,.63.04.94.17.61.21.92,0,.63.04.94.16.61.2.92.04.63.07.94.09.62.13.93.08.62.11.93.03.63.06.94.07.62.11.93.03.63.06.94.12.62.15.93.08.62.12.93.06.62.09.94-.02.63,0,.94.13.62.16.93-.01.63.01.94.09.62.12.93.03.63.06.94.04.62.06.94.03.63.05.94.04.62.07.94.05.62.07.94.02.63.04.94.13.62.14.93.02.63.04.94.02.63.04.94.08.62.09.94-.06.63-.04.94.04.62.06.94.06.62.07.94,0,.63,0,.94.06.62.07.94.02.63.03.94.05.62.07.94,0,.63.02.94.02.63.03.94,0,.63.01.94.07.62.08.94-.04.63-.03.94,0,.63.02.94.01.63.02.94,0,.63,0,.94.07.62.08.94,0,.63,0,.94.06.63.06.94.01.63.02.94-.08.63-.07.94.07.63.07.94-.06.63-.06.94,0,.63,0,.94.09.63.09.94,0,.63,0,.94-.07.63-.07.94.02.63.02.94,0,.63,0,.94.01.63.02.94.04.63.04.94-.04.63-.04.94.05.63.05.94-.07.63-.07.94c0,.36-.01.68-.03.98-.03.36.01.7-.05.98-.08.36-.23.66-.36.92-.16.32-.39.54-.63.72s-.52.32-.86.41c-.29.08-.6.2-.95.22-.3.02-.63-.04-.98-.05-.31,0-.64.04-.98.03-.31-.01-.62,0-.93-.02s-.62-.03-.93-.04-.62-.1-.93-.12-.62.04-.93.03-.62-.06-.93-.07-.62-.05-.93-.07-.62-.02-.93-.03-.62.04-.93.03-.62-.05-.93-.06-.62-.03-.93-.04-.62-.06-.93-.07-.62-.01-.93-.02-.62.02-.93,0-.62-.1-.93-.11-.62-.02-.93-.03-.62.05-.93.03-.62-.09-.93-.1-.62,0-.93,0-.62.04-.93.03-.62-.03-.93-.04-.62,0-.93-.01-.62-.07-.93-.08-.62-.03-.93-.04-.62.05-.93.04-.62-.06-.93-.06-.62-.04-.93-.04-.62.05-.93.05-.62-.02-.93-.02-.62-.02-.93-.02-.62-.01-.93-.02-.62,0-.93,0-.62-.09-.93-.09-.62-.02-.93-.02-.62.04-.93.04-.62.03-.93.03-.62,0-.93,0-.62-.02-.93-.02-.62,0-.93,0-.62.01-.93.01c-.32,0-.62-.08-.91-.08-.32,0-.62.04-.91.02-.32-.02-.62-.09-.9-.14-.32-.05-.62-.07-.9-.14-.31-.08-.58-.23-.84-.35-.29-.13-.57-.23-.81-.41s-.42-.43-.61-.67-.39-.45-.53-.73c-.12-.26-.18-.56-.27-.87-.08-.27-.19-.56-.25-.87-.05-.28-.06-.58-.09-.9-.03-.29-.08-.59-.1-.9-.02-.29.03-.6.03-.91,0-.31-.03-.62-.03-.93s0-.62,0-.93-.06-.62-.07-.93.01-.62,0-.93,0-.62,0-.93-.03-.62-.04-.93-.01-.62-.02-.93-.02-.62-.03-.93-.07-.62-.08-.93.03-.62.03-.93-.08-.62-.09-.93.05-.62.03-.93-.09-.62-.1-.93,0-.62-.02-.93-.03-.62-.04-.93-.04-.62-.05-.93.02-.62,0-.93-.09-.62-.1-.93.04-.62.02-.93-.03-.62-.05-.93-.08-.62-.1-.93,0-.62-.02-.93-.06-.62-.08-.93-.08-.62-.1-.92-.03-.62-.06-.93-.05-.62-.08-.93-.05-.62-.08-.93-.01-.62-.04-.93-.11-.61-.14-.92-.02-.62-.06-.93-.05-.62-.09-.93-.12-.61-.16-.92-.03-.62-.07-.93-.08-.61-.12-.92-.13-.61-.17-.91-.08-.61-.12-.92-.11-.61-.16-.92-.08-.61-.13-.92-.08-.61-.13-.92-.13-.61-.18-.91-.04-.62-.1-.93-.18-.6-.24-.9-.13-.6-.19-.91-.06-.62-.12-.92-.17-.6-.24-.9-.1-.61-.17-.92-.13-.61-.2-.91-.12-.61-.2-.91-.16-.6-.24-.9-.16-.6-.24-.9-.21-.59-.29-.89c-.08-.3-.19-.6-.27-.9s-.14-.61-.23-.91-.22-.59-.31-.89-.17-.6-.27-.9-.2-.59-.31-.89-.19-.6-.31-.89-.28-.56-.39-.85-.22-.59-.34-.87-.19-.6-.32-.88-.33-.54-.46-.82-.19-.6-.33-.88-.35-.53-.49-.8-.22-.59-.37-.86-.31-.54-.46-.82-.31-.55-.47-.81-.37-.51-.54-.77-.29-.56-.46-.82-.39-.49-.57-.75-.34-.52-.53-.78-.36-.52-.55-.76-.38-.5-.58-.74-.39-.49-.59-.73-.4-.48-.61-.71-.43-.46-.64-.69-.46-.43-.68-.65-.41-.47-.64-.69-.49-.39-.72-.61-.46-.42-.7-.62-.47-.41-.71-.62-.45-.44-.69-.63-.55-.31-.8-.5-.45-.44-.7-.62-.51-.36-.77-.54-.53-.33-.79-.5-.52-.34-.78-.51-.56-.28-.83-.43-.53-.33-.8-.48-.51-.36-.79-.51-.59-.22-.87-.36-.52-.34-.81-.48-.57-.25-.85-.38-.56-.27-.85-.4-.59-.21-.88-.33-.56-.27-.86-.38-.59-.2-.88-.31-.58-.25-.88-.36c-.29-.1-.6-.14-.89-.24s-.57-.23-.86-.33-.59-.16-.88-.26-.58-.2-.87-.3-.57-.23-.86-.32-.58-.19-.88-.28-.6-.15-.89-.24-.57-.23-.87-.32-.6-.13-.89-.22-.6-.14-.89-.22-.58-.2-.88-.28-.59-.16-.89-.23-.59-.17-.89-.24-.61-.08-.91-.15-.58-.22-.88-.28-.61-.06-.91-.12-.59-.16-.89-.22-.6-.14-.9-.19-.61-.05-.91-.1-.6-.13-.9-.18-.6-.13-.9-.18-.61-.05-.92-.09-.61-.09-.91-.12-.61-.1-.91-.13-.62,0-.92-.03c-.31-.03-.62-.06-.93-.08s-.62-.07-.93-.1-.62-.09-.93-.12-.62-.03-.93-.06-.63.01-.94-.01-.62-.03-.93-.05-.62-.09-.93-.11-.62-.04-.93-.06-.62-.03-.93-.05-.62-.06-.93-.08-.62-.05-.93-.07-.62-.05-.93-.07-.63.03-.94.01-.62-.07-.93-.09-.62,0-.94-.01-.62-.12-.93-.13-.62-.04-.93-.06-.63.05-.94.04-.62-.06-.93-.08-.62-.04-.93-.05-.62-.06-.93-.07-.62,0-.93-.02-.62.03-.94.02-.62-.07-.93-.08-.62-.07-.93-.08-.63.06-.94.04-.62-.05-.93-.06-.62.02-.94,0-.62-.1-.93-.11-.62.02-.94,0-.62-.06-.93-.07-.62,0-.93-.02-.62.05-.94.05-.62-.1-.93-.1-.62.02-.94.01-.62,0-.93,0-.62-.01-.93-.02-.62-.06-.93-.06-.62.06-.94.05-.62-.04-.93-.05-.62-.03-.93-.04-.62.04-.94.04-.62-.07-.93-.07-.62,0-.93,0-.62-.03-.93-.03-.62.07-.94.06-.62-.05-.93-.06-.62.01-.93,0-.62.05-.93.05-.62-.1-.93-.1-.62.02-.93.01-.62,0-.93,0-.62.02-.93.02-.62.03-.93.03-.62-.02-.93-.02-.62-.03-.93-.03-.62-.02-.93-.02-.62.04-.93.04-.62.03-.93.03-.62.02-.93.02-.62-.04-.93-.04-.62,0-.93,0-.62,0-.93,0-.62,0-.93,0-.62-.02-.93-.02-.62.02-.93.02-.62-.01-.93-.01-.62,0-.93,0-.62.07-.93.08-.62-.02-.93-.02-.62.02-.93.02-.62-.06-.93-.06-.62.07-.93.07-.62.03-.93.03-.62-.02-.93-.02-.62-.03-.93-.03-.62.04-.93.04-.62-.05-.93-.05-.62.01-.93.02-.62.02-.93.02-.62.02-.93.03-.62,0-.93,0-.62.04-.93.05-.62,0-.93,0-.62-.03-.93-.02-.62,0-.93,0-.62-.02-.93-.02-.62.02-.93.02-.62.05-.93.05-.62.02-.93.02-.62-.09-.94-.09-.62.07-.93.07-.62-.06-.93-.06-.62.08-.93.08-.62-.06-.93-.06-.62.03-.93.03-.62-.02-.93-.01-.62.04-.93.04-.62.01-.93.01-.62.02-.93.02-.62-.01-.93-.01-.62.01-.93.01-.62-.07-.93-.07-.62.03-.93.03-.62.02-.93.02-.62-.04-.93-.04-.62.06-.93.05-.62-.04-.93-.04-.62,0-.93,0-.62-.05-.93-.05-.62.06-.93.06-.62-.01-.93-.02-.62.01-.93,0-.62,0-.93,0-.62-.05-.93-.05-.62-.02-.93-.02-.62,0-.93-.01-.62.02-.93.01-.62,0-.93,0-.62-.03-.93-.03-.62.04-.94.03c-.35,0-.68-.04-.99,0-.35.04-.68.07-.98.16-.34.1-.61.28-.87.45-.28.18-.54.38-.73.65-.18.25-.31.55-.41.89-.09.29-.2.6-.23.96-.02.3,0,.64.02.99.02.29,0,.58.01.87s.02.58.01.87.04.58.04.87-.01.58-.01.87c0,.31-.09.62-.09.94s.06.62.06.94.01.62.01.94.01.62.01.94-.06.62-.06.94.01.62.01.94,0,.62,0,.94,0,.62,0,.94-.03.62-.03.94.07.62.07.94-.08.62-.08.94.09.62.09.94-.09.62-.09.94.08.62.08.94-.07.62-.06.94.04.62.04.94-.06.62-.06.94.03.62.03.94,0,.62,0,.94.05.62.05.94-.04.62-.04.94,0,.62,0,.94-.03.62-.03.94.04.62.04.94.02.62.02.94-.02.62-.02.94.03.62.03.94,0,.62,0,.94-.07.62-.07.94.02.62.02.94.01.62.01.94-.03.62-.03.94.03.62.03.94-.06.62-.06.94.09.62.09.94-.02.62-.02.94-.06.62-.06.94.02.62.02.94.03.62.03.94,0,.62,0,.94-.04.62-.04.94.02.62.02.94.01.62.01.94-.04.62-.04.94.02.62.02.94-.03.62-.03.94.07.62.07.94-.06.62-.06.94.05.62.05.94,0,.62,0,.94-.02.62-.02.94-.02.62-.02.94-.03.62-.03.94,0,.62,0,.94.03.62.04.94.05.62.05.94,0,.62,0,.94.01.62.01.94-.03.62-.03.94,0,.62,0,.94,0,.62,0,.94-.03.62-.03.94,0,.62,0,.94.05.62.05.94-.01.62-.01.94.02.62.02.94.01.62.01.94-.04.62-.04.94,0,.62,0,.94,0,.62,0,.94.03.62.03.94-.06.62-.06.94.04.62.04.94-.04.62-.04.94,0,.62,0,.94.04.62.04.94-.01.62-.01.94-.03.62-.03.94.01.62.01.94.03.62.03.94.04.62.04.94-.08.62-.08.94.02.62.02.94.03.62.03.94,0,.62,0,.94-.05.62-.05.94-.02.62-.02.94.02.62.02.94,0,.62,0,.94.04.62.04.94.03.62.03.94-.05.62-.05.94-.02.62-.02.94.06.62.06.94-.04.62-.04.94.03.62.03.94-.06.62-.06.94,0,.62,0,.94-.01.62-.01.94.04.62.04.94-.02.62-.02.94.07.62.07.94-.07.62-.07.94.07.62.07.94-.08.62-.08.94,0,.62,0,.94.02.62.02.94.04.62.04.94,0,.62,0,.94,0,.62,0,.94.03.62.03.94-.05.62-.05.94.03.62.03.94-.04.62-.04.94.06.62.06.94-.06.62-.06.94.03.62.03.94-.04.62-.04.94.04.62.04.94-.05.62-.05.94.05.62.05.94-.03.62-.03.94.04.62.04.94-.02.62-.02.94-.05.62-.05.94.01.62.01.94,0,.62,0,.94,0,.62,0,.94,0,.62,0,.94.02.62.02.94-.05.62-.05.94.01.62.01.94.05.62.05.94.03.62.03.94-.03.62-.03.94-.04.62-.04.94.03.62.03.94-.05.62-.05.94.08.62.08.94-.04.62-.04.94-.04.62-.04.94.07.62.07.94-.07.62-.07.94.03.62.03.94.02.62.02.94-.02.62-.02.94.04.62.04.94-.06.62-.06.94.06.62.06.94-.07.62-.07.94.09.62.09.94-.04.62-.04.94.03.62.03.94-.08.62-.08.94.08.62.08.94-.06.62-.06.94,0,.62,0,.94.01.62.01.94.06.62.06.94-.07.62-.07.94,0,.62,0,.94.04.62.04.94-.03.62-.03.94.04.62.04.94-.03.62-.03.94-.05.62-.05.94.05.62.05.94-.05.62-.05.94.05.62.05.94.02.62.02.94,0,.62,0,.94,0,.62,0,.94-.06.62-.06.94.05.62.05.94-.02.62-.02.94-.01.62-.01.94,0,.62,0,.94.01.62.01.94-.04.62-.04.94.03.62.03.94.03.62.02.94-.06.62-.06.94.03.62.03.94.03.62.02.94-.02.62-.02.94-.03.62-.03.94.04.62.04.94-.01.62-.01.94-.06.62-.06.94.03.62.03.94,0,.62,0,.94-.03.62-.03.94.05.62.05.94,0,.62,0,.94-.03.62-.03.94-.02.62-.02.94-.05.62-.05.94.03.62.03.94,0,.62,0,.94-.01.62-.01.94,0,.62,0,.94-.02.62-.02.94.06.62.06.94-.05.62-.05.94.03.62.03.94,0,.62,0,.94-.05.62-.05.94.04.62.03.94.03.62.03.94c0,.33-.09.66-.08.97,0,.34.08.66.11.96.03.34.1.65.14.96.05.34.03.67.1.97.08.33.23.62.34.91.13.31.3.58.48.83.19.27.35.55.6.76s.51.38.82.52c.27.13.58.24.91.33.29.08.62.07.95.12.3.04.61.13.95.15.31.01.63-.03.97-.03.31,0,.63.04.97.02.31-.02.62-.05.93-.07s.62-.03.93-.04.62-.07.93-.09.62.04.93.03.62-.02.93-.03.62,0,.93-.02.62-.07.93-.07.62-.03.93-.03.62.02.93.01.62.02.93.01.62-.05.93-.05.62-.01.93-.01.62.04.93.04.62.03.93.03.62.03.93.03.62,0,.93,0,.62.02.93.03.62-.05.93-.05.62.01.93.02.62.04.93.04.62.03.93.03.62-.02.93-.02.62.07.93.07.62,0,.93,0,.62-.03.93-.03.62-.03.93-.02.62.1.93.11c.32,0,.62.01.92.02.32,0,.62-.03.92-.03.32,0,.63.01.92.01.32,0,.63-.02.92-.02.32,0,.63,0,.92-.02.32-.01.63,0,.92-.02.33-.02.63-.07.91-.11.33-.05.61-.15.89-.23.32-.09.62-.14.87-.28.28-.15.5-.36.7-.59s.36-.46.5-.76c.12-.25.26-.53.34-.85.07-.27.07-.58.12-.91.04-.28.08-.58.11-.9.02-.29,0-.59.02-.91.01-.29.06-.59.07-.91,0-.29.04-.6.04-.92,0-.29.02-.6.02-.91,0-.3-.02-.6-.02-.92,0-.3-.03-.6-.03-.92,0-.31,0-.62,0-.93s-.04-.62-.04-.93.06-.62.06-.93-.03-.62-.03-.93-.02-.62-.02-.93.04-.62.04-.93,0-.62,0-.93.03-.62.03-.93,0-.62,0-.93-.02-.62-.02-.93,0-.62,0-.93-.06-.62-.06-.93.01-.62.01-.93.04-.62.04-.93-.07-.62-.07-.93,0-.62,0-.93.07-.62.07-.93-.04-.62-.04-.93.03-.62.03-.93-.05-.62-.05-.93-.02-.62-.02-.93,0-.62,0-.93.07-.62.07-.93-.07-.62-.07-.93,0-.62,0-.93.01-.62.01-.93.05-.62.05-.93.02-.62.02-.93,0-.62,0-.93-.05-.62-.05-.93.06-.62.06-.93-.02-.62-.02-.93,0-.62,0-.93,0-.62,0-.93-.04-.62-.04-.93.02-.62.02-.93.07-.62.07-.93-.02-.62-.02-.93-.02-.62-.02-.93.02-.62.02-.93,0-.62,0-.93,0-.62,0-.93-.04-.62-.04-.93.04-.62.04-.93-.03-.62-.03-.93,0-.62,0-.93-.04-.62-.04-.93.05-.62.05-.93-.07-.62-.07-.93.05-.62.05-.93-.06-.62-.06-.93.02-.62.02-.93.03-.62.03-.93.03-.62.03-.93.02-.62.02-.93-.08-.62-.08-.93.05-.62.05-.93-.04-.62-.04-.93-.01-.62-.01-.93.04-.62.04-.93.05-.62.05-.93-.05-.62-.05-.93.04-.62.04-.93-.08-.62-.07-.93.05-.62.05-.93-.03-.62-.03-.93.08-.62.08-.93-.06-.62-.06-.93,0-.62,0-.93.05-.62.05-.93-.02-.62-.02-.93,0-.62,0-.93-.05-.62-.05-.93,0-.62,0-.93.09-.62.09-.93-.03-.62-.03-.93-.04-.62-.04-.93.07-.62.07-.93-.08-.62-.08-.93,0-.62,0-.93.07-.62.07-.93-.04-.62-.04-.93.01-.62.01-.93-.02-.62-.01-.93.04-.62.04-.93-.04-.62-.04-.93.03-.62.03-.93.04-.62.04-.93-.03-.62-.03-.93.03-.62.04-.93-.09-.62-.09-.93.08-.62.08-.93-.03-.62-.03-.93.02-.62.02-.93,0-.62,0-.93.02-.62.02-.93c0-.32-.05-.64-.04-.95s.02-.64.03-.95.01-.64.03-.95.04-.64.07-.95.16-.63.21-.93.03-.64.09-.95.16-.62.23-.93.14-.63.22-.92.21-.6.31-.9.18-.62.3-.9.26-.58.4-.86.34-.54.51-.8.32-.55.51-.8.41-.49.62-.71.47-.42.71-.63.49-.39.75-.57.51-.36.79-.52.54-.32.83-.45.56-.29.86-.4.6-.17.91-.26.61-.13.93-.2.6-.18.92-.23.62-.07.94-.12.61-.15.93-.19.63,0,.95-.03.62-.06.95-.07.63-.06.95-.06.63,0,.95,0c.31,0,.62.05.93.05s.62.01.93.01.62.04.93.04.62-.06.93-.06.62,0,.93,0,.62,0,.93,0,.62.03.93.03.62.01.93.01.62.02.93.02.62-.01.93-.01.62.05.93.05.62,0,.93,0,.62-.03.93-.03.62,0,.93,0,.62-.04.93-.03.62.06.93.06.62-.04.93-.04.62.05.93.05.62-.04.93-.04.62-.03.93-.03.62.08.93.08.62-.03.93-.03.62,0,.93,0,.62-.06.93-.06.62,0,.93,0,.62.05.93.05.62-.04.93-.05.62.03.93.03.62.02.93.02.62,0,.93,0,.62,0,.93,0,.62-.05.93-.06.62.07.93.07.62-.07.93-.07.62.04.93.04.62.01.93,0,.62-.08.93-.08.62.08.93.08.62,0,.93,0,.62-.03.93-.03.62,0,.93,0,.62,0,.93,0,.62-.03.93-.04.62-.04.93-.04.62.07.93.07.62,0,.93-.01.62,0,.93,0,.62-.04.93-.04.62-.02.93-.03.62,0,.93,0,.62.05.93.05.62-.04.93-.04.62-.01.93-.01.62-.02.93-.03.62,0,.93,0,.62,0,.93,0,.62.04.93.04.62-.08.93-.08.62.03.93.03.62.02.93.02.62,0,.93,0,.62-.03.93-.03.62-.01.93-.01.62-.02.93-.03.62-.02.93-.03.62.07.93.06.62-.05.93-.05.62.07.93.06.62-.05.93-.05.62-.02.93-.02.62.02.93.02.62.04.93.04.62-.06.93-.06.62.04.93.04.62.01.93.01.62-.08.93-.08.62.08.93.08.62-.08.93-.08.62.06.93.06.62-.02.93-.02.62.03.93.03.62-.09.93-.09.62,0,.93,0,.62.04.93.04.62-.06.93-.06.62.09.93.09.62-.01.93-.01.62-.08.93-.08.62.08.93.08.62-.08.93-.08.62.03.93.03.62-.03.93-.03.62.02.93.02.62.03.93.03.62.01.93.01.62-.05.93-.05.62-.01.93,0,.62.06.93.07.62,0,.93,0,.62-.04.93-.03.62.02.93.02.62-.03.93-.03.62-.02.93-.02.62.02.93.02.62,0,.93,0,.62.06.93.06.62,0,.93,0,.62-.04.93-.04.62.05.93.05.62-.01.93,0,.62.05.93.06.62,0,.93,0,.62-.04.93-.04.62.02.93.02.62,0,.93,0,.62,0,.93,0,.62,0,.93,0,.62.07.93.08.62-.06.93-.06.62.04.93.04.62,0,.93,0,.62.08.93.08.62,0,.93.01.62-.02.93-.01.62-.04.93-.03.62.08.93.09.62-.04.93-.03.62.08.93.09.62-.05.93-.04.62.03.93.04.62.02.93.03.62.04.93.05.62,0,.93,0,.62,0,.93,0,.62,0,.93,0,.62.09.93.1.62-.01.93,0,.62.04.93.05.62-.06.94-.05.62.02.93.03.62.02.93.03.62.08.93.09.62.04.93.05.62-.06.94-.05.62.01.93.02.62.1.93.12.62-.05.94-.04.62.09.93.1.62,0,.93.02.62.04.93.05.62.03.93.05.62-.04.94-.03.62.08.93.09.62.06.93.07.63-.05.94-.04.62.04.93.06.62.07.93.08.62-.03.93-.01.62.05.93.07.62.04.93.05.62,0,.93.03.62.03.93.04.62.08.93.1.62-.02.93,0,.62.04.93.05.62.05.93.06.62.12.93.13.62,0,.93.02.62,0,.93.02.62.05.93.07.62.08.93.1.62,0,.93.03.62.08.93.1.62.03.93.05.62-.02.94,0,.62.11.93.14.62.05.93.07.62.02.93.04.62.05.93.07.62.04.93.06.62.05.93.07c.31.02.62.07.93.09s.62.06.93.08.62.05.93.07.62.05.93.08.62,0,.93.03.62.04.93.07.61.09.92.12.62.02.93.05.61.14.92.17.62,0,.93.03.62.07.93.1.62.04.93.08.61.09.92.13.62.06.93.1.61.15.91.19.62.04.93.08.61.1.92.14.63,0,.93.03.61.15.91.19.62.08.92.12.61.12.92.16.62.08.92.12.62.03.93.07.61.12.92.17.62.07.92.12.6.18.91.23.62.03.93.08.6.16.91.22.61.1.92.16.62.06.92.12.6.18.9.23.62.05.93.11.6.14.91.2.6.16.9.22.62.08.92.15.6.17.9.24.62.06.93.12.6.14.91.21.6.16.9.23.6.16.9.23.61.1.92.17.6.17.9.25.59.19.89.27.62.07.92.15.6.16.9.24.6.17.89.25.59.21.88.29.61.13.91.21.58.22.88.3.61.12.91.21.58.23.87.32.59.18.89.27.6.16.89.26.58.22.88.31.58.22.87.32.6.17.89.27.6.17.89.28c.3.1.58.23.87.34s.59.21.88.32.6.17.89.29.57.25.86.36.57.26.85.38.56.27.85.39.58.23.86.36.55.29.83.43.56.28.83.42.55.29.82.43.58.23.85.38.54.32.8.47.54.3.81.46.5.37.76.54.53.33.79.49.57.26.83.44.5.37.75.55.51.36.76.54.52.34.77.53.45.44.69.63.48.39.72.58.53.33.77.53.48.39.71.6.42.46.65.66.44.44.66.65.48.4.7.62.44.44.65.66.44.43.66.66.39.48.6.71.46.42.66.66.35.51.55.75.45.43.65.67.32.54.51.78.38.49.57.74.4.48.58.73.38.49.55.75.3.54.47.8.35.51.51.77.3.54.46.81.3.54.45.81.36.51.5.78.29.55.43.82.27.56.41.84.22.58.35.86.29.55.42.83.28.55.4.84.22.58.34.87.26.56.37.85.21.58.32.87.23.58.33.87.14.61.24.9.22.58.32.87.2.59.29.88.12.61.21.91.19.59.27.89.14.6.22.91.18.59.25.9.09.62.15.92.14.6.21.91.17.6.23.91c.06.31.12.61.18.92s.08.62.14.93.06.62.12.93.1.62.15.93.15.61.2.92.06.62.1.93.09.62.13.93.12.61.17.92.08.62.12.93.07.62.11.93.06.62.1.93.08.62.11.93.09.62.12.93.1.62.13.93.02.63.05.94.02.63.05.94.08.62.1.93.02.63.05.94.14.62.16.93.05.62.07.94.01.63.03.94.05.62.07.94.04.62.05.94-.02.63-.01.94.06.62.07.94-.02.63-.01.94-.02.63-.02.94.09.62.09.94-.04.63-.03.94,0,.62,0,.94,0,.62,0,.94.03.62.03.94,0,.62,0,.94-.03.62-.04.94-.04.62-.05.94,0,.62,0,.94.02.63,0,.94-.1.62-.11.93-.03.62-.04.94.02.63,0,.94-.09.62-.11.93.02.63,0,.94-.03.62-.05.94-.12.62-.14.93-.02.62-.05.94-.02.63-.04.94-.05.62-.07.93-.05.62-.08.93-.14.61-.17.92-.06.62-.09.93-.07.62-.11.93,0,.63-.03.94-.13.61-.17.92-.02.63-.06.94-.07.62-.11.93-.15.61-.19.92-.05.62-.09.93-.14.61-.18.92-.02.63-.07.94-.16.61-.21.92-.07.62-.12.93-.1.62-.15.93-.14.61-.19.92-.06.62-.11.93-.16.61-.22.91-.1.62-.16.92-.09.62-.14.93c-.06.31-.07.63-.14.93s-.17.61-.24.91-.1.62-.17.93-.13.61-.21.92-.2.6-.28.9-.16.61-.24.91-.15.61-.24.91-.16.61-.25.91-.19.6-.29.89-.19.6-.29.89-.26.57-.37.87-.17.6-.28.9-.27.57-.38.86-.17.61-.29.9-.32.54-.44.83-.21.59-.34.87-.3.55-.43.83-.28.56-.42.84-.26.57-.41.84-.3.55-.45.82-.24.58-.39.86-.35.52-.51.79-.33.53-.5.79-.33.53-.5.79-.31.54-.49.8-.41.47-.59.73-.31.55-.49.8-.36.51-.55.76-.46.44-.65.68-.38.49-.58.73-.39.48-.6.72-.43.46-.63.69-.35.52-.56.75-.47.42-.68.64-.41.48-.63.7-.45.43-.68.64-.49.39-.72.6-.41.47-.65.68-.46.42-.7.62-.51.36-.76.56-.48.39-.73.59-.49.38-.74.57-.46.42-.72.61-.52.34-.78.52-.49.38-.75.56-.52.34-.78.52-.56.28-.82.45-.49.39-.75.56-.54.31-.81.47-.57.25-.84.41-.52.34-.79.49-.54.31-.82.46-.54.3-.82.45-.58.23-.86.37-.57.25-.85.39-.56.26-.85.39-.54.32-.83.45-.6.18-.89.3-.55.3-.84.42-.59.2-.89.31-.57.26-.86.37-.6.18-.9.29-.6.19-.89.29-.58.25-.88.35c-.29.1-.58.21-.87.31s-.6.15-.89.25-.57.25-.86.35-.59.17-.89.27-.59.2-.88.3-.57.24-.87.34-.58.21-.88.31-.58.2-.88.3-.6.15-.9.25-.59.18-.89.28-.59.2-.88.29-.6.16-.9.25-.6.17-.89.26-.6.16-.9.25-.59.17-.89.25-.6.17-.9.24-.59.18-.89.25-.6.17-.9.24-.61.12-.91.18-.62.03-.93.09-.61.13-.91.17c-.32.05-.61.13-.9.19-.32.06-.62.1-.9.17-.32.08-.62.13-.89.23-.31.11-.56.3-.81.42-.3.15-.57.28-.78.46-.26.21-.46.43-.61.67-.16.26-.29.54-.34.85-.05.28-.02.59.01.91.03.28.04.59.12.91.07.28.2.56.3.86.09.27.25.54.36.83.11.27.15.58.28.87.12.27.24.55.36.84.13.28.24.57.37.86s.33.53.46.82.24.57.37.86.23.58.36.86.19.59.32.88.28.56.4.84.26.56.39.85.25.57.38.85.22.58.35.87.28.56.4.84.29.55.42.84.22.58.34.87.21.59.33.87.31.54.43.83.28.56.4.84.23.58.35.86.22.58.35.87.26.57.38.85.26.56.38.85.2.59.32.88.29.55.42.83.27.56.4.84.2.59.33.88.26.56.39.85.24.57.36.86.26.56.39.85.25.57.38.85.27.56.4.84.22.58.34.87.25.57.37.86.29.55.41.84.25.57.37.85.19.6.31.88.3.55.43.83.21.59.33.87.3.55.43.83.2.59.32.88.26.56.39.85.23.58.36.86.26.57.38.85.29.55.41.84.25.57.38.85.27.56.39.85.24.57.37.86.24.57.37.86.18.6.31.88.27.56.39.85.26.56.39.85.26.57.38.85.26.57.38.85.27.56.39.85.23.58.35.86.28.56.4.84.21.59.34.87.23.58.35.86.32.54.45.82.18.6.3.89.3.55.42.83.26.57.38.85.26.57.38.85.21.58.34.87.23.58.36.86.29.55.42.84.21.59.33.87.24.57.37.86.23.58.36.86.3.55.42.83.27.56.39.85.26.56.39.85.2.59.33.88.24.58.36.86.23.58.36.86.31.54.44.83.19.59.32.88.25.57.37.85.3.55.42.83.25.57.38.85.25.57.37.86.24.57.37.86.24.57.36.86.25.57.37.86.26.57.38.85.19.6.31.88.28.56.4.84.22.58.35.87.3.55.43.83.27.56.39.85.23.58.36.86.26.56.39.85.18.6.3.88.28.55.41.84.26.56.39.85.22.58.34.87.23.58.35.86.29.55.42.83.21.59.34.87.26.56.39.85.21.59.33.87.33.53.45.82.17.61.29.89.32.54.44.82.26.57.38.85.25.57.37.86.24.57.36.86.19.59.32.88.23.58.36.86.33.53.46.82.17.61.29.89.25.57.37.86.29.55.41.84.24.58.36.86.28.55.41.84.2.59.33.88.24.57.37.86.32.54.44.83.24.58.36.86.22.58.35.87.25.57.37.86.22.58.35.87.28.56.4.84.26.56.39.85.22.58.34.87.28.56.4.84.2.59.33.87.31.54.43.83.21.59.33.87.25.57.37.86.23.58.36.86.23.58.36.86.3.55.42.83.25.57.37.85.2.59.32.88.25.57.37.86.31.54.43.83.17.6.3.89.32.54.44.82.22.58.34.87.21.59.33.87.29.55.42.84.25.57.37.86.27.56.4.84.18.6.3.89.31.54.43.83.23.58.35.86.26.56.39.85.2.59.32.88.25.57.37.85.26.57.38.85c.13.29.31.55.43.83s.18.6.3.88.29.56.4.84.24.58.35.86.23.58.33.87c.11.3.11.62.21.9.1.3.24.58.32.87.09.3.18.6.26.89.08.31.12.61.19.91.07.31.1.62.15.91.05.31.17.61.19.91.03.32.04.63.04.92,0,.32,0,.63-.03.93-.03.31-.14.61-.21.9s-.19.58-.3.87-.2.58-.36.85-.34.51-.52.75-.33.51-.55.74c-.21.21-.43.43-.67.63-.23.19-.48.37-.74.56-.24.18-.49.36-.76.53-.25.16-.53.3-.8.46-.26.15-.55.25-.83.4-.26.14-.51.33-.79.47-.27.13-.56.24-.85.37s-.56.24-.85.37-.55.26-.84.38-.56.25-.85.37-.57.21-.87.32-.58.23-.87.34c-.31,0-.64-.09-.95-.09s-.63.06-.94.06-.63.02-.94.02-.63,0-.94,0-.63-.07-.94-.07-.63.02-.94.02-.63.02-.94.02-.63.03-.94.03-.63,0-.94,0-.63-.05-.94-.05-.63.04-.94.04-.63-.02-.94-.02-.63.02-.94.02-.63-.06-.94-.06-.63-.02-.94-.02-.63.08-.94.08-.63,0-.94,0-.63,0-.94,0-.63-.04-.94-.04-.63-.05-.94-.05-.63.02-.94.02-.63.02-.94.02-.63-.04-.94-.04-.63.04-.94.04-.63.03-.94.03-.63.02-.94.02-.63-.04-.94-.04-.63-.02-.94-.02-.63.02-.94.02-.63-.04-.94-.04-.63,0-.94,0-.63.05-.94.05-.63-.06-.94-.06-.63.07-.95.07c-.31-.07-.6-.2-.9-.27s-.62-.11-.92-.2-.6-.18-.89-.28-.59-.2-.88-.32-.55-.31-.83-.43-.59-.21-.87-.34-.57-.27-.84-.41-.53-.33-.8-.49-.51-.36-.77-.53-.51-.35-.76-.53-.54-.32-.78-.51-.46-.42-.7-.62-.45-.43-.67-.65-.44-.43-.66-.66-.48-.4-.69-.63-.42-.46-.62-.7-.33-.53-.52-.78-.41-.47-.6-.72-.37-.5-.54-.76-.36-.51-.53-.77-.29-.55-.45-.82-.35-.51-.5-.78-.34-.52-.49-.79-.27-.56-.41-.84-.24-.57-.38-.86-.29-.55-.43-.83-.29-.55-.41-.84-.23-.58-.36-.87c-.12-.29-.25-.57-.37-.86s-.23-.58-.36-.86-.3-.55-.42-.83-.24-.58-.36-.86-.23-.58-.35-.86-.25-.57-.37-.86-.26-.57-.38-.85-.18-.6-.3-.89-.24-.57-.37-.86-.29-.55-.41-.84-.24-.57-.37-.86-.24-.57-.37-.86-.23-.58-.35-.87-.29-.55-.41-.84-.27-.56-.4-.85-.24-.57-.37-.86-.27-.56-.4-.85-.19-.6-.31-.88-.29-.55-.41-.84-.19-.59-.32-.88-.3-.55-.43-.83-.22-.59-.34-.87-.26-.57-.38-.85-.3-.55-.43-.83-.2-.59-.32-.88-.29-.55-.41-.84-.24-.57-.37-.86-.19-.6-.31-.88-.3-.55-.42-.83-.27-.56-.4-.85-.21-.59-.33-.87-.29-.55-.42-.84-.26-.56-.39-.85-.21-.59-.33-.87-.23-.58-.35-.87-.27-.56-.4-.85-.27-.56-.39-.85-.2-.59-.33-.88-.28-.56-.4-.84-.28-.56-.4-.84-.24-.57-.37-.86-.23-.58-.35-.86-.3-.55-.42-.83-.23-.58-.36-.86-.29-.55-.41-.84-.18-.6-.3-.89-.28-.56-.41-.84-.29-.55-.41-.84-.26-.57-.38-.85-.16-.61-.29-.89-.31-.55-.43-.83-.21-.59-.34-.87-.29-.55-.42-.84-.26-.56-.39-.85-.27-.56-.4-.85-.19-.6-.31-.88-.31-.55-.43-.83-.27-.56-.39-.85-.17-.6-.3-.89-.32-.54-.44-.83-.24-.57-.36-.86-.23-.58-.36-.86-.22-.58-.34-.87-.27-.56-.39-.85-.31-.54-.44-.83-.21-.59-.33-.87-.28-.56-.41-.84-.23-.58-.36-.86-.23-.58-.36-.86-.25-.57-.37-.86-.23-.58-.35-.87-.29-.55-.42-.84-.24-.58-.36-.86-.26-.57-.38-.85-.28-.56-.41-.84-.2-.59-.32-.88-.31-.54-.43-.83-.18-.6-.31-.88-.31-.54-.44-.83-.25-.57-.38-.85-.28-.56-.41-.84-.17-.61-.29-.89-.33-.54-.45-.82-.26-.57-.38-.85-.22-.59-.34-.87-.23-.58-.36-.86-.23-.58-.36-.86-.26-.57-.39-.85-.28-.56-.41-.84-.26-.56-.39-.85-.23-.58-.36-.86-.22-.58-.34-.87-.28-.56-.4-.84-.23-.58-.36-.86-.29-.55-.41-.84-.2-.59-.32-.88-.29-.55-.42-.84-.23-.58-.36-.86-.26-.56-.39-.85-.21-.59-.33-.87-.26-.57-.38-.85-.27-.56-.4-.84-.24-.58-.36-.86-.23-.58-.36-.86-.23-.58-.36-.86-.32-.54-.45-.82-.19-.6-.32-.88-.25-.57-.38-.85-.24-.58-.36-.86-.29-.55-.41-.84-.27-.56-.39-.85-.22-.58-.34-.87-.2-.59-.32-.88-.28-.56-.41-.84-.26-.57-.38-.85-.27-.56-.4-.85-.19-.6-.31-.88-.29-.55-.41-.84-.2-.59-.32-.88-.3-.55-.42-.83-.2-.59-.32-.88-.22-.58-.34-.87-.25-.57-.38-.85-.31-.54-.44-.83-.25-.57-.37-.86-.25-.57-.37-.86-.17-.6-.3-.89-.29-.55-.41-.84-.21-.59-.34-.87-.28-.56-.4-.85-.2-.59-.32-.88-.27-.56-.4-.85-.26-.57-.38-.85-.26-.57-.38-.85-.21-.59-.34-.87-.2-.59-.32-.88-.28-.56-.4-.84-.27-.56-.39-.85c-.12-.3-.25-.59-.37-.87s-.23-.59-.36-.88-.26-.58-.39-.86-.31-.56-.45-.84-.26-.58-.41-.86-.32-.55-.48-.82-.26-.59-.43-.85-.4-.5-.58-.76-.35-.53-.53-.78-.34-.54-.54-.78-.43-.47-.64-.7-.41-.49-.63-.71-.49-.41-.73-.61-.5-.39-.75-.58-.47-.43-.73-.61-.55-.32-.82-.47-.58-.26-.86-.39-.55-.31-.85-.42-.6-.18-.91-.27-.6-.17-.91-.25-.6-.18-.92-.24-.61-.15-.93-.2-.63,0-.95-.04-.62-.09-.94-.11-.62-.05-.94-.06-.63-.04-.95-.05-.63.03-.95.03-.63.03-.95.04-.63-.03-.95-.01c-.31.02-.62.08-.93.1s-.63-.01-.94,0-.62.11-.93.13-.63.01-.94.03-.63-.03-.94-.02-.62.12-.93.14-.63-.01-.94,0-.63,0-.94.01-.62.05-.94.06-.62.04-.94.05-.63.01-.94.02-.63.02-.94.03-.63,0-.94.01-.62.08-.94.08-.63.02-.94.03-.63.02-.94.03-.63-.04-.94-.03-.63.03-.94.04-.63-.02-.94-.02-.62.09-.94.09-.63-.07-.94-.07-.63.06-.94.06-.63.05-.94.05-.63,0-.94,0-.63,0-.94,0-.63-.02-.94-.01-.63-.03-.94-.02-.63.05-.94.05-.63.05-.94.05-.63-.08-.94-.08-.63.07-.94.07-.63-.04-.94-.03-.63.04-.94.04-.63-.07-.94-.07-.63.02-.94.02-.63,0-.94-.01-.63.06-.94.06-.63-.05-.94-.06-.63-.04-.94-.05-.63.06-.94.06-.63.02-.94.02-.63-.05-.94-.05-.63.02-.94.02-.63-.06-.94-.07-.63.02-.94.01-.63.03-.94.03-.63-.02-.94-.02-.63.01-.94,0-.63-.07-.94-.08-.63.01-.94,0-.63,0-.94,0-.63.02-.94.01-.63,0-.94-.01-.63.02-.94.02-.63-.07-.94-.07-.63.01-.94,0-.63.01-.94,0-.63-.03-.94-.03-.63-.05-.94-.05-.63.02-.94.01-.63-.03-.94-.03-.63-.02-.94-.02-.63.01-.94,0-.63.03-.94.03-.63,0-.94,0-.63-.07-.94-.08-.63.05-.94.05-.63-.04-.94-.04-.63.02-.94.02-.63-.06-.94-.06-.63-.05-.94-.05-.63,0-.94,0-.63.05-.94.05-.63-.06-.94-.06-.63.02-.94.02-.63-.02-.94-.03-.63.06-.94.05-.63-.04-.94-.04c-.32,0-.62-.04-.92-.04-.32,0-.63.02-.92.04-.32.02-.62.07-.91.11-.32.04-.61.16-.89.23-.31.07-.62.1-.9.2-.3.11-.55.29-.81.43-.27.15-.51.33-.74.52s-.47.38-.66.63-.32.51-.46.79c-.13.26-.3.52-.39.82-.09.28-.13.58-.19.9-.06.28-.14.58-.18.9-.04.29-.08.59-.11.91-.02.29-.01.6-.02.92,0,.3,0,.6,0,.92,0,.31,0,.62,0,.93s-.01.62-.01.93.02.62.02.93,0,.62,0,.93-.01.62,0,.93-.02.62-.02.93.01.62.01.93-.01.62,0,.93.03.62.03.93,0,.62,0,.93,0,.62,0,.93.06.62.07.93.03.62.04.93-.07.62-.07.93.01.62.01.93-.02.62-.02.93.05.62.05.93.02.62.02.93,0,.62,0,.93-.02.62-.02.93.03.62.03.93-.06.62-.06.93.08.62.08.93-.05.62-.05.93.03.62.03.93.02.62.02.93-.02.62-.02.93.03.62.03.93-.06.62-.06.93.06.62.07.93-.06.62-.06.93.07.62.07.93.02.62.02.93-.03.62-.03.93-.05.62-.05.93.06.62.06.93,0,.62,0,.93-.06.62-.05.93.01.62.01.93-.03.62-.03.93.05.62.05.93.05.62.05.93-.04.62-.04.93.04.62.04.93-.03.62-.03.93-.06.62-.06.93.05.62.05.93.02.62.02.93.03.62.03.93-.02.62-.02.93-.07.62-.07.93.01.62.01.93,0,.62,0,.93.06.62.06.93,0,.62,0,.93-.01.62-.01.93-.03.62-.03.93.01.62.01.93-.03.62-.03.93.03.62.03.93.03.62.03.93,0,.62,0,.93.01.62.01.93-.05.62-.05.93-.03.62-.03.93.07.62.07.93-.03.62-.03.93.01.62.01.93-.03.62-.03.93.01.62.01.93.04.62.04.93-.09.62-.09.93.01.62.01.93.02.62.02.93-.02.62-.02.93,0,.62,0,.93-.02.62-.02.93.07.62.07.93-.04.62-.04.93.05.62.05.93.01.62.01.93-.08.62-.08.93.01.62.01.93,0,.62,0,.93.03.62.03.93-.04.62-.04.93.03.62.03.93,0,.62,0,.93-.03.62-.03.93,0,.62,0,.93.02.62.02.93,0,.62,0,.93.02.62.02.93.02.62.02.93-.06.62-.06.93.04.62.04.93.01.62.01.93-.03.62-.03.93.03.62.03.93-.02.62-.02.93,0,.62,0,.93.03.62.03.93-.01.62-.01.93.03.62.03.93-.03.62-.03.93,0,.62,0,.93-.03.62-.03.93.03.62.03.93,0,.62,0,.93,0,.62,0,.93-.05.62-.05.93,0,.62,0,.93.02.62.02.93.03.62.03.93.02.62.02.93-.02.62-.02.93.01.62.01.93-.02.62-.02.93-.04.62-.04.93.07.62.07.93-.07.62-.07.93.03.62.03.93-.04.62-.04.93.06.62.06.93.02.62.02.93-.03.62-.03.93-.06.62-.07.93.03.62.03.93.04.62.04.93-.05.62-.05.93c0,.32,0,.64,0,.95s-.04.64-.04.95c0,.32.03.64.02.95,0,.32.01.64,0,.95-.01.32-.03.64-.05.95-.01.33-.01.64-.03.95-.02.33-.04.64-.07.95-.03.33-.12.63-.16.94-.04.32-.12.63-.17.93-.06.32-.11.63-.18.92-.07.32-.13.63-.22.92-.1.31-.18.61-.3.9s-.29.57-.44.84-.32.54-.5.8-.37.5-.58.74-.45.42-.69.64-.43.44-.69.64c-.24.18-.49.38-.76.56-.25.17-.54.3-.82.47-.26.15-.52.34-.8.49-.27.14-.57.24-.86.39-.27.14-.55.29-.84.43-.28.13-.56.27-.85.4-.28.13-.57.25-.86.38-.28.12-.55.29-.85.42s-.6.18-.9.31-.57.24-.87.36c-.31,0-.61.05-.93.05s-.62-.04-.93-.04-.62,0-.93,0-.62,0-.93,0-.62.06-.93.06-.62-.06-.93-.06-.62.06-.93.06-.62-.03-.93-.03-.62.03-.93.03-.62,0-.93,0-.62-.02-.93-.02-.62.02-.93.02-.62-.08-.93-.08-.62.07-.93.07-.62-.01-.93-.01-.62-.02-.93-.02-.62,0-.93,0-.62-.02-.93-.02-.62.06-.93.06-.62,0-.93,0-.62-.02-.93-.02-.62-.04-.93-.04-.62.04-.93.04-.62.02-.93.02-.62-.05-.93-.05-.62.07-.93.07-.62-.02-.93-.02-.62-.02-.93-.02-.62-.06-.93-.06-.63.09-.94.09c-.3-.11-.58-.28-.87-.39-.3-.11-.61-.19-.9-.3-.3-.12-.6-.22-.89-.33-.3-.12-.6-.23-.88-.34-.3-.12-.58-.27-.87-.39-.3-.13-.56-.31-.84-.44-.3-.14-.6-.23-.87-.37-.29-.15-.56-.31-.83-.46-.29-.16-.58-.27-.84-.43-.28-.17-.5-.4-.75-.58-.26-.19-.53-.36-.76-.56-.24-.21-.51-.4-.72-.62s-.41-.49-.6-.74-.34-.53-.5-.8-.26-.57-.38-.86-.31-.55-.41-.85c-.09-.29-.11-.61-.19-.93-.07-.3-.15-.6-.21-.92-.05-.3-.09-.61-.13-.94-.04-.3-.08-.61-.11-.93-.03-.3-.03-.62-.06-.94-.02-.3-.04-.62-.06-.94-.02-.31-.04-.62-.05-.94-.01-.31-.05-.62-.05-.95s.01-.62,0-.95,0-.63,0-.95-.02-.63-.02-.95c0-.31.03-.63.03-.94s-.09-.63-.09-.94.02-.63.02-.94.01-.63.01-.94-.02-.63-.02-.94.04-.63.04-.94.03-.63.03-.94,0-.63,0-.94-.02-.63-.02-.94-.03-.63-.03-.94.01-.63.01-.94-.04-.63-.04-.94.07-.63.07-.94,0-.63,0-.94-.08-.63-.08-.94.06-.63.06-.94-.06-.63-.06-.94,0-.63,0-.94.02-.63.02-.94,0-.63,0-.94.01-.63.01-.94.02-.63.02-.94-.03-.63-.03-.94-.01-.63-.01-.94,0-.63,0-.94-.04-.63-.04-.94.08-.63.08-.94,0-.63,0-.94-.07-.63-.07-.94.06-.63.06-.94-.02-.63-.02-.94-.03-.63-.03-.94.01-.63.01-.94-.05-.63-.05-.94.04-.63.04-.94.03-.63.03-.94-.04-.63-.04-.94.02-.63.02-.94-.05-.63-.05-.94.04-.63.04-.94.04-.63.04-.94-.07-.63-.07-.94.03-.63.03-.94.04-.63.03-.94-.03-.63-.03-.94-.05-.63-.05-.94.08-.63.08-.94-.02-.63-.03-.94-.01-.63-.01-.94.02-.63.02-.94-.04-.63-.04-.94.05-.63.05-.94-.07-.63-.07-.94.06-.63.06-.94-.06-.63-.06-.94.08-.63.08-.94-.04-.63-.04-.94-.03-.63-.03-.94.05-.63.05-.94-.04-.63-.04-.94.05-.63.05-.94-.02-.63-.02-.94-.05-.63-.05-.94.04-.63.04-.94-.04-.63-.04-.94.04-.63.04-.94-.02-.63-.02-.94,0-.63,0-.94.06-.63.06-.94-.07-.63-.07-.94,0-.63,0-.94,0-.63,0-.94.06-.63.06-.94-.04-.63-.04-.94,0-.63.01-.94-.03-.63-.03-.94.04-.63.04-.94-.05-.63-.05-.94.02-.63.02-.94.03-.63.03-.94-.04-.63-.04-.94.04-.63.04-.94-.03-.63-.03-.94-.03-.63-.02-.94.04-.63.04-.94-.05-.63-.05-.94.03-.63.03-.94-.02-.63-.02-.94.03-.63.03-.94,0-.63,0-.94.05-.63.05-.94-.05-.63-.05-.94.04-.63.04-.94,0-.63,0-.94,0-.63,0-.94.02-.63.02-.94-.05-.63-.05-.94,0-.63,0-.94,0-.63,0-.94.03-.63.03-.94,0-.63,0-.94,0-.63,0-.94-.03-.63-.03-.94-.03-.63-.03-.94,0-.63,0-.94.08-.63.08-.94-.05-.63-.05-.94.07-.63.07-.94-.03-.63-.03-.94-.04-.63-.04-.94.06-.63.07-.94-.01-.63-.01-.94.02-.63.02-.94-.07-.63-.07-.94.04-.63.04-.94-.01-.63-.01-.94.05-.63.06-.94,0-.63,0-.94.02-.63.02-.94-.01-.63,0-.94-.04-.63-.04-.94,0-.63,0-.94-.02-.63-.02-.94.08-.63.09-.94-.03-.63-.03-.94.02-.63.03-.94-.02-.63-.02-.94-.02-.63-.02-.94,0-.63,0-.94.07-.63.07-.94c0-.32-.07-.64-.07-.94,0-.32.02-.64,0-.94-.01-.33-.02-.64-.05-.94-.03-.33-.07-.64-.12-.94-.05-.32-.17-.62-.26-.91-.09-.31-.16-.62-.29-.89-.14-.29-.34-.53-.53-.77s-.36-.51-.61-.71c-.24-.18-.52-.32-.82-.47-.27-.13-.54-.28-.86-.38-.28-.08-.59-.16-.92-.21-.29-.05-.6-.06-.93-.09-.3-.03-.61-.04-.94-.05-.3-.01-.61,0-.94.01-.31,0-.62-.05-.94-.05s-.62.04-.93.04-.62-.02-.94-.01-.62,0-.94,0-.62.03-.93.04-.62,0-.94,0-.62.04-.93.04-.62,0-.94,0-.62-.03-.94-.03-.62-.02-.94-.02-.62.08-.93.08-.62-.08-.94-.08-.62.04-.94.04-.62,0-.94-.01-.62-.01-.94-.01-.62.04-.94.04-.62,0-.94,0-.62-.06-.93-.06-.62.04-.94.04-.62-.03-.93-.03-.62.05-.94.05-.62-.09-.93-.1-.62.06-.94.06-.62-.04-.93-.04-.62-.03-.93-.03-.62.03-.94.03-.62,0-.94,0-.62-.04-.93-.04-.62.04-.94.04-.62.02-.94.02-.62-.06-.93-.06-.62,0-.94,0-.62.05-.94.04-.62-.06-.93-.06-.62.05-.94.04-.62-.06-.93-.06-.62.05-.94.05-.62-.03-.93-.03-.62.02-.94.02-.62-.06-.93-.06-.62-.02-.93-.02-.62.05-.94.04-.62-.03-.93-.03-.62,0-.94,0-.62-.02-.93-.02-.62-.01-.94-.01-.62.01-.94.01-.62-.04-.93-.04-.62,0-.94,0-.62.05-.94.05-.62-.03-.93-.04-.62-.05-.93-.05-.62.04-.94.04-.62.04-.94.04-.62-.08-.93-.08-.62.02-.94.02-.62.05-.94.05-.62,0-.94,0-.62-.09-.93-.09-.62.02-.94.02-.62,0-.94,0-.62.02-.94.02-.62.03-.94.03-.62,0-.94,0-.62-.03-.94-.02-.62,0-.94,0-.62,0-.94,0-.62.01-.93.01-.62.02-.93.02-.62-.06-.94-.05-.62.06-.93.07-.62-.06-.94-.06-.62.08-.93.08-.62-.06-.94-.06-.62.05-.93.05-.62-.05-.94-.04c-.31,0-.62.02-.93.02s-.63,0-.93,0-.62-.06-.93-.07-.63.04-.94.02-.63-.07-.93-.11-.61-.17-.91-.22-.62-.08-.92-.14-.62-.1-.92-.18-.6-.19-.89-.28-.6-.18-.89-.29-.55-.3-.83-.43-.56-.27-.83-.42-.58-.24-.84-.41-.52-.35-.76-.53-.45-.43-.68-.63-.52-.35-.74-.57-.37-.5-.57-.74-.47-.42-.65-.67-.36-.5-.53-.76-.26-.56-.42-.84-.31-.53-.45-.81-.33-.52-.46-.81-.23-.57-.34-.87-.15-.6-.26-.9-.24-.57-.33-.87Zm181.64-45.13c.4-.28.73-.47.97-.65.46-.34.66-.56.92-.68.28-.13.59-.2.87-.32s.54-.32.83-.42.6-.17.9-.25c.3-.09.59-.2.89-.29s.6-.16.9-.25.6-.17.89-.27.58-.22.88-.32.59-.19.89-.29.59-.19.88-.3.58-.23.87-.35.56-.28.84-.4.59-.2.87-.33.57-.25.85-.37.55-.29.83-.42.59-.21.87-.34.54-.31.82-.45.55-.3.82-.44.57-.26.84-.41.53-.33.79-.49.56-.28.82-.44.5-.37.76-.53.53-.32.79-.5.51-.36.76-.53.5-.36.75-.54.53-.33.77-.52.46-.42.7-.61.5-.37.74-.56.47-.4.71-.6.46-.41.69-.62.51-.36.73-.57.39-.49.61-.71.48-.4.69-.62.44-.44.65-.66.38-.49.58-.72.43-.44.63-.68.44-.44.63-.68.34-.52.53-.77.39-.48.57-.73.35-.51.53-.76.38-.49.55-.74.39-.48.56-.74.33-.52.49-.79.26-.56.42-.83.33-.52.48-.79.33-.52.48-.8.3-.54.44-.82.27-.56.41-.83.26-.56.39-.84.29-.55.42-.83.17-.6.29-.88.3-.54.42-.83.15-.6.26-.89.25-.56.36-.86.21-.58.31-.88.15-.6.24-.9.25-.57.34-.87.19-.59.27-.89.16-.6.24-.9.09-.61.16-.92.17-.59.24-.9.14-.6.2-.91.1-.61.16-.92.18-.6.23-.9.12-.61.17-.92.01-.62.06-.93.11-.61.15-.93c.04-.31.15-.62.19-.93s.05-.63.1-.95.14-.62.19-.93.04-.63.09-.95.06-.63.12-.94.16-.62.21-.93.13-.62.19-.93.11-.62.18-.93.16-.61.23-.92.13-.62.21-.93.07-.63.15-.94c.08-.31.21-.6.26-.88.06-.32.03-.63.05-.91.02-.33.06-.63.03-.91-.05-.32-.16-.6-.29-.85-.14-.27-.33-.48-.57-.68-.22-.18-.44-.4-.74-.52-.26-.1-.57-.14-.89-.2-.28-.05-.58-.06-.9-.08-.28-.02-.59-.08-.91-.08-.31,0-.63.04-.94.05s-.63-.01-.94-.01-.63,0-.94,0-.63-.02-.94-.02-.63.03-.94.03-.63.04-.94.04-.63-.07-.94-.06-.63.03-.94.04-.63.03-.94.04-.63,0-.94,0-.63.04-.94.04-.63-.06-.94-.06-.63-.02-.94-.02-.63.01-.94.02-.63.09-.94.09-.63-.02-.94-.02-.63-.05-.94-.05-.63,0-.94,0-.63.08-.94.09-.63-.08-.94-.08-.63.06-.94.06-.63.05-.94.05-.63-.05-.94-.05-.63.04-.94.04-.63,0-.94.01-.63-.03-.94-.03-.63.04-.94.04-.63-.02-.94-.01-.63-.01-.94,0-.63-.03-.94-.03-.63.05-.94.05-.63-.02-.94-.02-.63.04-.94.04-.63-.07-.94-.07-.63.03-.94.03-.63.01-.94.02-.63.02-.94.02-.63-.02-.94-.02-.63.04-.94.04-.63-.04-.94-.04-.63.03-.94.03-.63,0-.94,0-.63-.05-.94-.05-.63.08-.94.08-.63-.06-.94-.06-.63.07-.94.07-.63-.04-.94-.04-.63.04-.94.04-.63-.05-.94-.05-.63-.04-.94-.04-.63.09-.94.09-.63,0-.94,0-.63-.04-.94-.04-.63,0-.94,0-.63.02-.94.02-.63-.06-.94-.06-.63.07-.94.07-.63-.03-.94-.03-.63,0-.94,0-.63-.03-.94-.03-.63.06-.94.05-.63-.05-.94-.06-.63,0-.94,0-.63.03-.94.03-.63,0-.94,0-.63-.07-.94-.07-.63,0-.94,0-.63.03-.94.03-.63-.06-.94-.06c-.34,0-.67.01-.97.03-.34.02-.67.06-.97.1-.34.05-.66.13-.94.21-.33.1-.65.18-.92.32-.3.16-.58.35-.8.56s-.43.49-.6.77-.22.59-.32.92c-.09.29-.15.6-.21.94-.05.3-.09.62-.11.95-.02.31-.03.63-.04.97,0,.31,0,.64,0,.97,0,.31,0,.63,0,.94s.02.63.02.94-.02.63-.02.94-.03.63-.02.94.06.63.06.94-.04.63-.04.94,0,.63.01.94.02.63.02.94.05.63.05.94-.03.63-.02.94-.05.63-.05.94.09.63.1.94,0,.63,0,.94-.02.63-.02.94,0,.63,0,.94.02.63.02.94-.02.63-.02.94.04.63.04.94-.05.63-.05.94.07.63.07.94-.03.63-.03.94,0,.63,0,.94.04.63.04.94-.02.63-.02.94-.04.63-.04.94.07.63.07.94,0,.63,0,.94-.07.63-.07.94.02.63.02.94-.02.63-.02.94,0,.63,0,.94.06.63.05.94-.04.63-.04.94-.03.63-.03.94.04.63.04.94.04.63.04.94-.05.63-.05.94-.03.63-.03.94,0,.63,0,.94-.04.63-.04.94.03.63.03.94.03.63.03.94-.05.63-.05.94,0,.63,0,.94-.04.63-.04.94,0,.63-.01.94.05.63.04.94-.07.63-.08.94-.04.63-.04.94.06.63.05.94-.05.63-.05.94,0,.63-.02.94c0,.32.03.62.04.91,0,.32-.05.63-.02.92.03.32.13.61.18.9.05.32.05.63.13.91.09.31.2.6.33.85.14.29.31.54.49.77s.4.47.65.65.51.33.8.45c.26.12.57.18.88.27.28.07.57.16.89.2.28.04.59.02.91.05.29.02.6,0,.91.02.29,0,.6.04.92.03.31,0,.62,0,.93,0s.62.04.94.03.62,0,.93,0,.62-.02.93-.02.62-.05.93-.05.62-.03.93-.03.62.05.94.05.62,0,.93-.01.62-.07.93-.07.62-.02.93-.02.62.09.94.09.62-.05.93-.05.62-.01.93-.01.62-.05.93-.06.62,0,.93,0,.62-.01.93-.01.62.04.94.04.62-.05.93-.05.62.05.94.05.62,0,.93,0,.62-.05.93-.06.62-.01.93-.01.62.05.94.05.62-.04.93-.04.62.03.93.03.62,0,.93-.01.62.01.93,0,.62-.06.93-.06.62.05.94.05.62,0,.93,0,.62-.06.93-.06.62.02.93.02.62.05.94.05.62,0,.93,0,.62-.04.93-.04.62,0,.93,0,.62,0,.93,0,.62-.04.93-.04.62.07.94.07.62-.04.93-.04.62.01.93.01.62,0,.93,0,.62-.03.93-.03.62.03.93.02.62-.03.93-.03.62-.03.93-.03.62.04.93.04.62,0,.93,0,.62,0,.93,0,.62.02.93.02.62-.06.93-.06.62.01.93.01.62,0,.93,0,.62.04.93.04.62-.06.93-.06.62,0,.93,0,.62-.02.93-.02.62-.01.93-.01.62,0,.93,0,.62-.02.93-.02.62.08.94.08.62-.03.93-.03.62.03.93.03.62-.08.93-.08.62.03.93.03.62,0,.93,0,.62-.01.93-.02.62.03.93.03.62-.08.93-.08.62,0,.93,0,.62.07.94.06.62-.06.93-.06.62.03.93.03.62-.06.93-.07.62.07.94.06.62-.07.93-.07.62,0,.93,0,.62.01.93,0,.62,0,.93,0,.62,0,.93,0,.62,0,.93,0,.62-.02.93-.02.62-.02.93-.02.62,0,.93,0,.62-.01.93-.01.62,0,.93,0,.62-.02.93-.03.62,0,.93,0,.62,0,.93,0,.62.05.94.05.62,0,.93,0,.62,0,.93-.01.62-.03.93-.04.62-.07.93-.07.62.02.93.02.62,0,.93-.01.62.06.94.06.62-.1.93-.1.62.08.94.07.62-.05.93-.06.62,0,.93,0,.62.02.93.01.62-.04.93-.04.62-.05.93-.05.62.06.94.05.62-.07.93-.07.62.06.94.05.62.02.94.01.62-.03.93-.04.62-.08.93-.09.62.03.94.03.62-.01.93-.02c.31,0,.62-.03.93-.04s.62.05.94.05.62-.08.93-.08.62.01.94,0,.62,0,.93-.02.62-.02.93-.03.62.03.94.02.62-.09.93-.1.62-.03.93-.04.62,0,.93-.02.62,0,.94-.02.62-.05.93-.07.62-.02.93-.03.63.02.94,0,.62-.1.93-.12.62-.05.93-.07.63.04.94.02.62-.05.93-.07.62-.09.93-.12.63,0,.94-.02.62-.12.93-.15.62-.05.93-.07.62-.05.93-.08.62-.04.93-.07.62-.08.93-.11.62-.07.93-.1.62-.03.93-.06.62-.04.93-.08.61-.11.92-.15.62-.03.93-.07.62-.08.93-.12.62-.06.93-.1.61-.14.92-.19.62-.05.93-.1.61-.15.92-.2.62-.07.93-.12.62-.07.93-.12.61-.13.92-.18.6-.17.91-.23.62-.09.92-.15.61-.12.92-.18.62-.1.92-.16.61-.13.91-.2.6-.17.91-.23c.31-.07.61-.14.91-.22s.61-.14.91-.23.62-.11.92-.21.59-.23.88-.33.6-.2.89-.32.59-.21.88-.34.58-.25.86-.39.56-.29.83-.44.55-.31.82-.47.53-.33.8-.5.53-.33.79-.51.49-.4.73-.59.48-.4.72-.61.5-.37.73-.59.44-.45.66-.67.44-.44.65-.68.39-.49.59-.73.42-.46.61-.72.33-.53.5-.79.37-.51.53-.78.36-.51.51-.79.26-.57.4-.85.26-.56.39-.85.24-.57.36-.87.21-.59.31-.89.17-.6.27-.9c.09-.3.22-.59.31-.89s.14-.61.22-.92.19-.6.26-.9.18-.6.24-.91.12-.62.18-.92.1-.62.16-.93.15-.61.2-.92.09-.62.13-.93.13-.62.16-.93-.02-.63,0-.94.07-.62.09-.93.07-.62.09-.93,0-.63,0-.94.1-.62.1-.94,0-.63,0-.94-.03-.63-.04-.94-.07-.62-.09-.94-.01-.63-.04-.94-.1-.62-.13-.93-.05-.62-.09-.94-.09-.62-.13-.93-.08-.62-.13-.93-.08-.62-.14-.93-.14-.61-.21-.92-.15-.61-.22-.91-.16-.61-.24-.91c-.08-.31-.21-.6-.3-.9s-.16-.62-.27-.91-.25-.59-.36-.88-.24-.59-.37-.87-.2-.61-.34-.89-.32-.55-.48-.82-.35-.53-.52-.79-.34-.53-.53-.79-.38-.51-.57-.75-.39-.5-.6-.73-.4-.49-.63-.71-.47-.43-.7-.64-.5-.38-.75-.58-.49-.39-.75-.58-.51-.36-.78-.53-.53-.35-.8-.5-.58-.24-.87-.38-.56-.28-.85-.4-.58-.23-.88-.35-.58-.25-.88-.36-.6-.2-.9-.29-.61-.14-.92-.22c-.3-.08-.61-.15-.91-.22s-.61-.14-.91-.21-.61-.15-.91-.22-.61-.12-.92-.17-.61-.12-.92-.17-.61-.16-.92-.21-.63-.05-.93-.1-.62-.05-.94-.09-.62-.08-.93-.12-.61-.13-.92-.17-.63,0-.94-.03-.62-.08-.93-.12-.62-.11-.93-.14-.63,0-.94-.04-.62-.1-.93-.13-.62-.08-.93-.11-.63,0-.94-.02-.62-.12-.93-.16-.63,0-.94-.03-.62-.13-.93-.16-.63,0-.94-.05-.62-.1-.93-.14-.62-.08-.93-.12-.62-.06-.93-.11-.62-.11-.92-.16-.62-.1-.92-.15c-.32-.06-.63-.17-.93-.21-.33-.05-.65-.08-.95-.1-.33-.03-.65-.07-.95-.08-.33-.01-.65,0-.96,0-.33.02-.64.12-.94.17-.33.05-.66.06-.95.15-.31.1-.57.31-.84.46-.28.16-.54.32-.78.53s-.45.43-.64.69c-.18.25-.35.51-.49.81-.13.27-.29.55-.4.86-.1.29-.18.59-.26.92-.07.3-.13.61-.18.93-.05.3-.06.62-.09.94-.04.3-.06.62-.09.95-.02.31,0,.63,0,.96-.02.31-.07.62-.08.93s-.09.62-.11.93,0,.62-.02.93-.06.62-.08.93.03.62.01.93-.09.62-.11.92-.03.62-.06.93-.07.62-.09.93,0,.62-.03.93-.13.61-.15.92-.03.62-.06.93-.06.62-.09.93-.07.62-.1.92-.09.61-.13.92,0,.62-.03.93-.14.61-.18.92-.06.62-.09.93-.08.61-.12.92,0,.63-.04.93-.16.6-.21.91-.1.61-.14.92-.07.62-.12.92-.09.61-.14.92-.09.61-.14.92-.08.62-.13.92-.07.62-.12.92-.16.6-.22.91-.08.62-.13.92-.12.61-.17.91-.14.6-.2.91-.12.61-.18.91-.16.6-.22.9-.11.61-.18.91-.07.62-.14.92-.16.6-.23.9-.12.61-.19.91-.13.61-.21.91-.16.6-.24.9-.13.61-.21.91-.16.6-.24.9-.16.6-.25.9-.2.59-.29.89-.12.61-.2.91-.23.58-.31.88-.21.59-.3.88-.17.6-.26.89-.11.61-.21.91-.24.58-.33.87c-.1.31-.19.62-.29.91s-.24.6-.36.89-.23.6-.37.88-.27.59-.45.85-.41.49-.63.72-.44.46-.71.64c-.25.17-.56.27-.87.4-.28.12-.58.21-.91.29-.29.07-.6.17-.94.2-.3.03-.62,0-.96,0-.31,0-.62,0-.94,0s-.62.04-.94.04-.62-.05-.94-.05-.62-.04-.94-.04-.62.06-.94.06-.62-.05-.94-.05-.62.02-.94.02-.62-.03-.94-.03-.62.03-.94.02-.62-.02-.94-.02-.62,0-.94,0-.62.03-.94.02-.62-.07-.94-.07-.62.06-.94.06-.62-.06-.94-.06-.62-.02-.94-.02-.62.03-.94.03-.62-.03-.94-.04-.62.04-.94.04-.62-.05-.94-.05-.62,0-.94,0-.62,0-.94,0-.62,0-.94,0-.62.02-.94.02-.62.03-.94.03-.62.02-.94.02-.62-.08-.94-.08-.62.05-.94.05-.62,0-.94,0-.62.03-.94.03-.62,0-.94,0-.62-.04-.94-.04-.62-.02-.94-.02-.62-.01-.94-.01-.62,0-.94,0-.62.03-.94.03-.62-.05-.94-.06-.62,0-.94,0-.62.08-.94.08-.62-.03-.94-.03-.62-.05-.94-.05-.62.09-.94.09-.62-.03-.94-.03-.62-.02-.94-.02-.62-.01-.94-.01-.62.03-.94.03-.62.02-.94.02-.62,0-.94,0-.62-.06-.94-.06-.62,0-.94,0-.62.04-.94.04-.62-.04-.94-.04-.62.07-.94.07-.62-.06-.94-.06-.62-.02-.94-.02-.62.02-.94.02-.62-.02-.94-.02-.62.07-.94.07-.62,0-.94,0-.62,0-.94,0-.62.02-.94.02-.63-.1-.94-.1-.62.09-.94.09-.62-.07-.94-.07-.62.07-.94.07-.62-.06-.94-.06-.62.05-.94.05-.62-.04-.94-.04-.63-.01-.94-.01-.63.07-.94.07-.63-.07-.94-.07-.63.06-.94.06-.63-.01-.94-.01-.63.01-.94.01-.63.01-.94.01-.63-.02-.94-.02-.63-.02-.94-.02-.63-.04-.94-.04-.63.05-.94.05-.63.03-.94.03-.63-.06-.94-.06-.63,0-.95,0Z"/>
  <path class="cls-1" d="m545.75,929.08c-1.02,0-2.05-.02-3.08-.06-32.71-.13-61.59-5.61-88.13-16.75-21.5-9.03-42.33-21.66-61.9-37.54-27.38-22.23-51.54-50.08-71.55-74.4l-4.7-5.7c-12.76-15.43-25.96-31.38-37.08-49.73-13.49-22.25-23.49-48.78-31.46-83.48-6.9-30.03-11.89-61.31-15.26-95.63-4.14-42.13-2.18-85.03,5.8-127.52,8.76-46.63,23.85-92.28,44.83-135.69,14.26-29.5,27.26-51.92,40.93-70.56,15.46-21.1,34.14-39.25,57.11-55.51,40.32-28.53,82.95-47.02,126.7-54.94,10.49-1.9,21.28-2.86,32.05-2.86,25.85,0,52.24,5.32,80.67,16.25,36.02,13.85,66.81,31.53,94.12,54.04,19.37,15.97,35.24,33.56,48.53,53.78,36.89,56.13,62.74,119.22,76.83,187.51,9.44,45.78,11.76,92.3,6.89,138.28-4.62,43.54-10.59,78.16-18.79,108.95-9.33,35.01-23.7,65.17-42.71,89.67-28.22,36.36-51.04,62.68-74,85.35-30.79,30.4-61.14,51-92.8,62.97-19.73,7.46-36.38,11.35-52.38,12.25-2.47.14-4.94.35-7.4.56-4.29.37-8.73.75-13.2.75h0Zm-23.24-15.6c5.62-.81,10.81-1.2,15.86-1.2,4.04,0,8.02.27,11.83.79,2.92.4,5.33.59,7.61.59,5.36,0,10.05-1.08,14.34-3.31,8.38-4.34,17.54-5.64,26.2-6.4,11.44-1,22.49-5.62,33.77-14.11,16.05-12.09,32.37-22.63,46.22-31.35,11.86-7.47,22.72-16.28,32.28-26.19,9.37-9.72,18.52-20.76,27.96-33.74.99-1.37,2.01-2.72,3.04-4.08,4.06-5.38,8.26-10.95,11.32-17.86.2-.29.39-.59.55-.9,4.14-7.8,9.08-14.98,13.78-21.67,2.57-3.65,5.17-7.26,7.78-10.87,3.04-4.22,6.09-8.44,9.08-12.73,10.31-14.78,21.8-32.32,27.7-53.5.19-.68.37-1.36.54-2.04.21-.8.51-1.52.91-2.14,5.87-9.08,9.26-19.03,10.37-30.43.7-7.13,1.85-14.38,2.96-21.39.75-4.72,1.49-9.44,2.12-14.18l1.09-8.16c3.07-22.73,6.23-46.24,5.63-68.83.23-27.71-2.15-55.18-7.26-83.98-8.54-48.09-21.16-88.46-38.59-123.41-11.12-22.3-23.59-43.06-35.41-62.4-19.07-31.21-40.63-54.52-65.92-71.25-16.69-11.05-34.45-18.96-51.61-26.61l-3.74-1.67c-15.84-7.08-34.74-14.78-54.84-18.28-11.4-1.98-23.05-2.99-34.64-2.99-17.36,0-35.2,2.26-53.03,6.72-22.84,5.71-46.95,15.1-75.88,29.56-16.87,8.42-32.24,19.38-45.71,32.56-21.37,20.92-41.07,46.26-58.54,75.33-13.71,22.8-30.9,53.6-42.26,89.72-9.36,29.77-14.17,61.7-18.29,91.87-2.74,20.04-5.57,40.75-4.99,61.82,1.05,38.34,5.45,78.35,13.45,122.33,1.02,5.63,2.15,10.14,3.54,14.18,1.73,5.05,3.99,11.7,6.05,18.43,2.02,6.61,5.03,13.08,9.19,19.78,4.47,7.2,7.93,13.29,10.91,19.16,9.53,18.8,27.94,52.45,44.1,66.62,8.52,7.47,15.98,17.21,23.2,26.62,6.63,8.65,13.49,17.6,21.35,25.11,13.49,12.89,28.46,22.2,42.95,31.22,8.82,5.49,17.94,11.16,26.5,17.53,9.62,7.16,20.29,12.29,33.56,16.16,1.87.55,3.74,1.11,5.6,1.67,6.02,1.81,12.25,3.68,18.54,4.99,1.51.32,3.02.74,4.53,1.15,3.53.98,7.18,1.99,11.18,1.99,1.03,0,2.07-.07,3.12-.22Z"/>
  <path class="cls-1" d="m540.25,964.69c5.69,0,11.39-.07,17.08.02,8.6.13,14.77,6.52,14.84,15.52.1,11.84.09,23.68,0,35.52-.07,9.07-5.98,15.47-14.73,15.63-11.54.21-23.09.18-34.62,0-8.67-.13-14.79-6.48-14.93-15.52-.18-11.84-.18-23.68,0-35.52.14-9.32,6.37-15.55,15.27-15.64,5.69-.06,11.39-.01,17.08-.01Z"/>
</svg>