<?xml version="1.0" encoding="UTF-8"?>
<svg id="Layer_1" data-name="Layer 1" xmlns="http://www.w3.org/2000/svg" viewBox="0 0 1080 1080">
  <defs>
    <style>
      .cls-1 {
        fill: #e1ded4;
        stroke-width: 0px;
      }
    </style>
  </defs>
  <g>
    <path class="cls-1" d="m180.23,394.77c8.8,0,16.4.42,22.83,1.26,6.42.84,11.97,1.96,16.65,3.35,4.68,1.4,8.55,3.53,11.62,6.39,3.07,2.86,5.55,5.79,7.43,8.8,1.89,3,3.28,7.15,4.19,12.46.91,5.31,1.5,10.4,1.78,15.29.28,4.89.42,11.31.42,19.27,0,7.26-.11,13.3-.31,18.11-.21,4.82-.66,9.81-1.36,14.97-.7,5.17-1.71,9.36-3.04,12.56-1.33,3.21-3.07,6.39-5.24,9.53-2.17,3.14-4.85,5.58-8.06,7.33-3.21,1.75-7.09,3.35-11.62,4.82-4.54,1.47-9.77,2.48-15.71,3.04-5.94.56-12.74.84-20.42.84h-47.12c-4.19,0-6.28-2.09-6.28-6.28v-125.44c0-4.19,2.09-6.28,6.28-6.28h47.96Zm-.84,114.97c7.26,0,13.23-.21,17.9-.63,4.68-.42,8.8-1.39,12.36-2.93,3.56-1.54,6.21-3.21,7.96-5.03,1.74-1.81,3.17-4.78,4.29-8.9,1.12-4.11,1.78-8.3,1.99-12.56.21-4.26.31-10.22.31-17.9,0-6.98-.1-12.42-.31-16.34-.21-3.91-.87-7.75-1.99-11.52-1.12-3.77-2.51-6.53-4.19-8.27-1.67-1.74-4.26-3.31-7.75-4.71-3.49-1.39-7.51-2.27-12.04-2.62-4.54-.35-10.37-.52-17.49-.52h-31.41v91.93h30.36Z"/>
    <path class="cls-1" d="m547.12,401.05c0-4.19,2.09-6.28,6.28-6.28h10.47c4.19,0,6.28,2.1,6.28,6.28v125.44c0,4.19-2.09,6.28-6.28,6.28h-18.22c-3.49,0-6-1.39-7.54-4.19l-63.03-103.24v101.15c0,4.19-2.09,6.28-6.28,6.28h-10.47c-4.19,0-6.28-2.09-6.28-6.28v-125.44c0-4.19,2.09-6.28,6.28-6.28h20.31c3.49,0,6,1.4,7.54,4.19l60.94,99.89v-97.8Z"/>
    <path class="cls-1" d="m612.04,401.05c0-4.19,2.09-6.28,6.28-6.28h10.47c4.19,0,6.28,2.1,6.28,6.28v125.44c0,4.19-2.09,6.28-6.28,6.28h-10.47c-4.19,0-6.28-2.09-6.28-6.28v-125.44Z"/>
    <path class="cls-1" d="m947.72,509.74c4.19,0,6.28,2.09,6.28,6.28v10.47c0,4.19-2.09,6.28-6.28,6.28h-105.54c-4.19,0-6.28-2.09-6.28-6.28v-125.44c0-4.19,2.09-6.28,6.28-6.28h10.47c4.19,0,6.28,2.1,6.28,6.28v108.69h88.79Z"/>
    <path class="cls-1" d="m392.58,532.77c-3.49,0-5.87-1.67-7.12-5.03l-8.3-27.32c-.79-2.61-3.2-4.39-5.93-4.39h-45.26c-2.73,0-5.14,1.78-5.93,4.4l-8.3,27.32c-1.26,3.35-3.63,5.03-7.12,5.03h-10.05c-4.89,0-6.56-2.37-5.02-7.12l43.98-125.86c1.25-3.35,3.63-5.03,7.12-5.03h15.91c3.49,0,5.86,1.68,7.12,5.03l43.98,125.86c1.54,4.75-.14,7.12-5.03,7.12h-10.05Zm-46.91-102.02l-14.9,38.44c-.75,2.15.84,4.39,3.11,4.39h29.22c2.27,0,3.87-2.25,3.11-4.39l-14.69-38.44c-.97-2.77-4.89-2.77-5.86,0Z"/>
    <path class="cls-1" d="m795.69,516.02c0-3.47-2.81-6.28-6.28-6.28h-85.46c-1.84,0-3.33-1.49-3.33-3.33v-23.47h80.4c3.47,0,6.28-2.81,6.28-6.28v-10.47c0-3.47-2.81-6.28-6.28-6.28h-80.4v-38.76c0-1.84,1.49-3.33,3.33-3.33h85.46c3.47,0,6.28-2.81,6.28-6.28v-10.47c0-3.47-2.81-6.28-6.28-6.28h-105.54c-3.47,0-6.28,2.81-6.28,6.28v125.44c0,3.47,2.81,6.28,6.28,6.28h105.54c3.47,0,6.28-2.81,6.28-6.28v-10.47Z"/>
  </g>
  <g>
    <path class="cls-1" d="m307.7,713.13c-3.49,0-5.87-1.67-7.12-5.03l-8.3-27.32c-.79-2.61-3.2-4.39-5.93-4.39h-45.26c-2.73,0-5.14,1.78-5.93,4.4l-8.3,27.32c-1.26,3.35-3.63,5.03-7.12,5.03h-10.05c-4.89,0-6.56-2.37-5.02-7.12l43.98-125.86c1.25-3.35,3.63-5.03,7.12-5.03h15.91c3.49,0,5.86,1.68,7.12,5.03l43.98,125.86c1.54,4.75-.14,7.12-5.03,7.12h-10.05Zm-46.91-102.02l-14.9,38.44c-.75,2.15.84,4.39,3.11,4.39h29.22c2.27,0,3.87-2.25,3.11-4.39l-14.69-38.44c-.97-2.77-4.89-2.77-5.86,0Z"/>
    <path class="cls-1" d="m495.75,575.13c4.19,0,6.28,2.1,6.28,6.28v125.44c0,4.19-2.09,6.28-6.28,6.28h-10.47c-4.19,0-6.28-2.09-6.28-6.28v-81.88l-29.11,83.14c-1.26,3.35-3.63,5.03-7.12,5.03h-15.91c-3.49,0-5.87-1.67-7.12-5.03l-29.53-84.39v83.14c0,4.19-2.09,6.28-6.28,6.28h-10.47c-4.19,0-6.28-2.09-6.28-6.28v-125.44c0-4.19,2.1-6.28,6.28-6.28h17.38c3.49,0,5.86,1.68,7.12,5.03l36.86,105.33,36.86-105.33c1.25-3.35,3.63-5.03,7.12-5.03h16.96Z"/>
    <path class="cls-1" d="m543.91,581.41c0-4.19,2.1-6.28,6.28-6.28h10.47c4.19,0,6.28,2.1,6.28,6.28v125.44c0,4.19-2.1,6.28-6.28,6.28h-10.47c-4.19,0-6.28-2.09-6.28-6.28v-125.44Z"/>
    <path class="cls-1" d="m725.06,705.8c.97,2.23,1.01,4.01.1,5.34-.91,1.33-2.55,1.99-4.92,1.99h-12.78c-3.35,0-5.79-1.6-7.33-4.82l-26.39-59.89c-2.37.14-6.21.21-11.51.21h-30.37v58.22c0,4.19-2.09,6.28-6.28,6.28h-10.47c-4.19,0-6.28-2.09-6.28-6.28v-125.44c0-4.19,2.1-6.28,6.28-6.28h47.96c11.73,0,21.46.42,29.21,1.26,7.75.84,14.03,2.06,18.85,3.67,4.82,1.61,8.44,3.95,10.89,7.02,2.44,3.07,4.05,6.32,4.82,9.74.76,3.42,1.15,7.99,1.15,13.72,0,11.03-1.85,19.2-5.55,24.5-3.7,5.31-11.48,9.08-23.35,11.31l25.97,59.48Zm-62.82-80.21c20.1,0,32.6-.77,37.48-2.3,4.89-1.54,7.33-5.72,7.33-12.56,0-5.16-1.67-8.51-5.03-10.05-3.77-1.67-15.42-2.51-34.97-2.51h-35.18v27.43h30.37Z"/>
    <path class="cls-1" d="m888.81,696.37c0-3.47-2.81-6.28-6.28-6.28h-85.46c-1.84,0-3.33-1.49-3.33-3.33v-23.47h80.4c3.47,0,6.28-2.81,6.28-6.28v-10.47c0-3.47-2.81-6.28-6.28-6.28h-80.4v-38.76c0-1.84,1.49-3.33,3.33-3.33h85.46c3.47,0,6.28-2.81,6.28-6.28v-10.47c0-3.47-2.81-6.28-6.28-6.28h-105.54c-3.47,0-6.28,2.81-6.28,6.28v125.44c0,3.47,2.81,6.28,6.28,6.28h105.54c3.47,0,6.28-2.81,6.28-6.28v-10.47Z"/>
    <path class="cls-1" d="m1040.85,575.13c4.19,0,6.28,2.1,6.28,6.28v12.36c0,2.79-1.05,5.38-3.14,7.75l-82.3,88.58h79.16c4.19,0,6.28,2.09,6.28,6.28v10.47c0,4.19-2.1,6.28-6.28,6.28h-105.54c-4.19,0-6.28-2.09-6.28-6.28v-12.35c0-2.93,1.05-5.51,3.14-7.75l82.3-88.58h-79.16c-4.19,0-6.28-2.09-6.28-6.28v-10.47c0-4.19,2.1-6.28,6.28-6.28h105.54Z"/>
    <path class="cls-1" d="m131.17,646.33c11.86-2.23,19.64-6,23.35-11.31,3.7-5.3,5.55-13.47,5.55-24.5,0-5.72-.39-10.29-1.15-13.72-.77-3.42-2.38-6.66-4.82-9.74-2.45-3.07-6.07-5.41-10.89-7.02-4.82-1.6-11.1-2.83-18.85-3.67-7.75-.84-17.49-1.26-29.21-1.26h-47.96c-4.19,0-6.28,2.1-6.28,6.28v44.19h-2.85c-2.87,0-5.19,2.33-5.19,5.19v12.65c0,2.87,2.33,5.19,5.19,5.19h2.85v58.22c0,4.19,2.1,6.28,6.28,6.28h10.47c4.19,0,6.28-2.09,6.28-6.28v-58.22h30.37c5.3,0,9.14-.07,11.51-.21l26.39,59.89c1.54,3.21,3.98,4.82,7.33,4.82h12.78c2.37,0,4.01-.66,4.92-1.99.91-1.33.87-3.1-.1-5.34l-25.97-59.48Zm-36.86-20.73h-30.37v-27.43h35.18c19.55,0,31.21.84,34.97,2.51,3.35,1.54,5.03,4.89,5.03,10.05,0,6.84-2.45,11.03-7.33,12.56-4.89,1.54-17.38,2.3-37.48,2.3Z"/>
  </g>
  <path class="cls-1" d="m24.97,358.97v362.05h1030.05v-362.05H24.97Zm1014.25,44.33v125.28s-998.46,0-998.46,0v-125.28c0-15.76,12.78-28.53,28.53-28.53h941.39c15.76,0,28.53,12.78,28.53,28.53ZM40.77,541.27h998.46v135.43c0,15.76-12.78,28.53-28.53,28.53H69.3c-15.76,0-28.53-12.78-28.53-28.53v-135.43Z"/>
</svg>