<?xml version="1.0" encoding="UTF-8"?>
<svg id="Layer_1" data-name="Layer 1" xmlns="http://www.w3.org/2000/svg" viewBox="0 0 1080 1080">
  <defs>
    <style>
      .cls-1 {
        fill: #e1ded4;
        stroke-width: 0px;
      }
    </style>
  </defs>
  <g>
    <path class="cls-1" d="m166.97,375.07c8.5,0,15.85.4,22.06,1.21,6.2.81,11.56,1.89,16.08,3.24,4.52,1.35,8.26,3.41,11.23,6.17,2.97,2.77,5.36,5.6,7.18,8.5,1.82,2.9,3.17,6.91,4.05,12.04.88,5.13,1.45,10.05,1.72,14.77.27,4.72.41,10.93.41,18.61,0,7.02-.1,12.85-.3,17.5-.2,4.65-.64,9.48-1.32,14.47-.68,4.99-1.65,9.04-2.93,12.14-1.28,3.1-2.97,6.17-5.06,9.21-2.09,3.03-4.69,5.39-7.79,7.08-3.1,1.69-6.85,3.24-11.23,4.65-4.38,1.42-9.44,2.4-15.17,2.93-5.73.54-12.31.81-19.73.81h-45.52c-4.05,0-6.07-2.02-6.07-6.07v-121.2c0-4.05,2.02-6.07,6.07-6.07h46.33Zm-.81,111.08c7.01,0,12.78-.2,17.3-.61,4.52-.4,8.5-1.35,11.94-2.83,3.44-1.48,6-3.1,7.69-4.86,1.69-1.75,3.07-4.62,4.15-8.6,1.08-3.98,1.72-8.02,1.92-12.14.2-4.11.3-9.88.3-17.3,0-6.74-.1-12-.3-15.78-.2-3.77-.84-7.49-1.92-11.13-1.08-3.64-2.43-6.3-4.05-7.99-1.62-1.69-4.12-3.2-7.49-4.55-3.37-1.35-7.25-2.19-11.63-2.53-4.38-.34-10.01-.51-16.89-.51h-30.35v88.82h29.34Z"/>
    <path class="cls-1" d="m521.45,381.14c0-4.05,2.02-6.07,6.07-6.07h10.12c4.05,0,6.07,2.02,6.07,6.07v121.2c0,4.05-2.02,6.07-6.07,6.07h-17.6c-3.37,0-5.8-1.35-7.28-4.05l-60.9-99.75v97.72c0,4.05-2.02,6.07-6.07,6.07h-10.12c-4.05,0-6.07-2.02-6.07-6.07v-121.2c0-4.05,2.02-6.07,6.07-6.07h19.63c3.37,0,5.8,1.35,7.28,4.05l58.88,96.51v-94.49Z"/>
    <path class="cls-1" d="m584.17,381.14c0-4.05,2.02-6.07,6.07-6.07h10.12c4.05,0,6.07,2.02,6.07,6.07v121.2c0,4.05-2.02,6.07-6.07,6.07h-10.12c-4.05,0-6.07-2.02-6.07-6.07v-121.2Z"/>
    <path class="cls-1" d="m908.5,486.16c4.05,0,6.07,2.02,6.07,6.07v10.11c0,4.05-2.02,6.07-6.07,6.07h-101.97c-4.05,0-6.07-2.02-6.07-6.07v-121.2c0-4.05,2.02-6.07,6.07-6.07h10.12c4.05,0,6.07,2.02,6.07,6.07v105.01h85.79Z"/>
    <path class="cls-1" d="m372.14,508.41c-3.37,0-5.67-1.62-6.88-4.86l-8.02-26.39c-.77-2.52-3.09-4.25-5.73-4.25h-43.73c-2.64,0-4.96,1.72-5.73,4.25l-8.02,26.39c-1.22,3.24-3.51,4.86-6.88,4.86h-9.71c-4.72,0-6.34-2.29-4.85-6.88l42.49-121.6c1.21-3.24,3.5-4.86,6.88-4.86h15.38c3.37,0,5.66,1.62,6.88,4.86l42.49,121.6c1.48,4.59-.14,6.88-4.86,6.88h-9.71Zm-45.32-98.56l-14.4,37.14c-.73,2.07.81,4.24,3.01,4.24h28.23c2.2,0,3.74-2.17,3.01-4.24l-14.19-37.14c-.94-2.68-4.72-2.68-5.66,0Z"/>
    <path class="cls-1" d="m761.61,492.22c0-3.35-2.72-6.07-6.07-6.07h-82.57c-1.78,0-3.22-1.44-3.22-3.22v-22.68h77.68c3.35,0,6.07-2.72,6.07-6.07v-10.12c0-3.35-2.72-6.07-6.07-6.07h-77.68v-37.45c0-1.78,1.44-3.22,3.22-3.22h82.57c3.35,0,6.07-2.72,6.07-6.07v-10.11c0-3.35-2.72-6.07-6.07-6.07h-101.97c-3.35,0-6.07,2.72-6.07,6.07v121.2c0,3.35,2.72,6.07,6.07,6.07h101.97c3.35,0,6.07-2.72,6.07-6.07v-10.12Z"/>
  </g>
  <g>
    <path class="cls-1" d="m286.25,704.93c-3.37,0-5.67-1.62-6.88-4.86l-8.02-26.39c-.77-2.52-3.09-4.25-5.73-4.25h-43.73c-2.64,0-4.96,1.72-5.73,4.25l-8.02,26.39c-1.22,3.24-3.51,4.86-6.88,4.86h-9.71c-4.72,0-6.34-2.29-4.85-6.88l42.49-121.6c1.21-3.24,3.5-4.86,6.88-4.86h15.38c3.37,0,5.66,1.62,6.88,4.86l42.49,121.6c1.48,4.59-.14,6.88-4.86,6.88h-9.71Zm-45.32-98.56l-14.4,37.14c-.73,2.07.81,4.24,3.01,4.24h28.23c2.2,0,3.74-2.17,3.01-4.24l-14.19-37.14c-.94-2.68-4.72-2.68-5.66,0Z"/>
    <path class="cls-1" d="m467.93,571.59c4.05,0,6.07,2.02,6.07,6.07v121.2c0,4.05-2.02,6.07-6.07,6.07h-10.11c-4.05,0-6.07-2.02-6.07-6.07v-79.11l-28.12,80.32c-1.22,3.24-3.51,4.86-6.88,4.86h-15.38c-3.37,0-5.67-1.62-6.88-4.86l-28.53-81.54v80.32c0,4.05-2.02,6.07-6.07,6.07h-10.11c-4.05,0-6.07-2.02-6.07-6.07v-121.2c0-4.05,2.02-6.07,6.07-6.07h16.79c3.37,0,5.66,1.62,6.88,4.86l35.61,101.77,35.61-101.77c1.21-3.24,3.5-4.86,6.88-4.86h16.39Z"/>
    <path class="cls-1" d="m514.47,577.66c0-4.05,2.02-6.07,6.07-6.07h10.12c4.05,0,6.07,2.02,6.07,6.07v121.2c0,4.05-2.02,6.07-6.07,6.07h-10.12c-4.05,0-6.07-2.02-6.07-6.07v-121.2Z"/>
    <path class="cls-1" d="m689.49,697.85c.94,2.16.98,3.88.1,5.16-.88,1.28-2.47,1.92-4.75,1.92h-12.35c-3.24,0-5.6-1.55-7.08-4.65l-25.5-57.87c-2.29.13-6,.2-11.13.2h-29.34v56.25c0,4.05-2.02,6.07-6.07,6.07h-10.11c-4.05,0-6.07-2.02-6.07-6.07v-121.2c0-4.05,2.02-6.07,6.07-6.07h46.33c11.33,0,20.74.4,28.22,1.21,7.49.81,13.56,1.99,18.21,3.54,4.65,1.55,8.16,3.81,10.52,6.78,2.36,2.97,3.91,6.1,4.65,9.41.74,3.31,1.11,7.72,1.11,13.25,0,10.66-1.79,18.55-5.36,23.67-3.58,5.13-11.1,8.77-22.56,10.92l25.09,57.46Zm-60.7-77.49c19.42,0,31.49-.74,36.21-2.23,4.72-1.48,7.08-5.53,7.08-12.14,0-4.99-1.62-8.23-4.86-9.71-3.64-1.62-14.9-2.43-33.79-2.43h-33.99v26.51h29.34Z"/>
    <path class="cls-1" d="m847.7,688.74c0-3.35-2.72-6.07-6.07-6.07h-82.57c-1.78,0-3.22-1.44-3.22-3.22v-22.68h77.68c3.35,0,6.07-2.72,6.07-6.07v-10.12c0-3.35-2.72-6.07-6.07-6.07h-77.68v-37.45c0-1.78,1.44-3.22,3.22-3.22h82.57c3.35,0,6.07-2.72,6.07-6.07v-10.11c0-3.35-2.72-6.07-6.07-6.07h-101.97c-3.35,0-6.07,2.72-6.07,6.07v121.2c0,3.35,2.72,6.07,6.07,6.07h101.97c3.35,0,6.07-2.72,6.07-6.07v-10.12Z"/>
    <path class="cls-1" d="m994.59,571.59c4.05,0,6.07,2.02,6.07,6.07v11.94c0,2.7-1.01,5.19-3.03,7.48l-79.52,85.59h76.48c4.05,0,6.07,2.02,6.07,6.07v10.11c0,4.05-2.02,6.07-6.07,6.07h-101.97c-4.05,0-6.07-2.02-6.07-6.07v-11.94c0-2.83,1.01-5.33,3.03-7.49l79.52-85.58h-76.48c-4.05,0-6.07-2.02-6.07-6.07v-10.12c0-4.05,2.02-6.07,6.07-6.07h101.97Z"/>
    <path class="cls-1" d="m115.69,640.38c11.46-2.15,18.98-5.8,22.56-10.92,3.58-5.12,5.36-13.02,5.36-23.67,0-5.53-.37-9.95-1.11-13.25-.74-3.3-2.3-6.44-4.65-9.41-2.36-2.97-5.87-5.23-10.52-6.78-4.65-1.55-10.72-2.73-18.21-3.54-7.49-.81-16.89-1.21-28.23-1.21h-46.33c-4.05,0-6.07,2.02-6.07,6.07v42.69h-2.75c-2.77,0-5.02,2.25-5.02,5.02v12.22c0,2.77,2.25,5.02,5.02,5.02h2.75v56.25c0,4.05,2.02,6.07,6.07,6.07h10.11c4.05,0,6.07-2.02,6.07-6.07v-56.25h29.34c5.12,0,8.83-.07,11.13-.2l25.5,57.87c1.48,3.1,3.84,4.65,7.08,4.65h12.35c2.29,0,3.87-.64,4.75-1.92.88-1.28.84-3-.1-5.16l-25.09-57.46Zm-35.61-20.03h-29.34v-26.51h33.99c18.89,0,30.15.81,33.79,2.43,3.24,1.49,4.86,4.72,4.86,9.71,0,6.61-2.36,10.66-7.08,12.14-4.72,1.49-16.79,2.23-36.22,2.23Z"/>
    <path class="cls-1" d="m1043.38,671.7c2.83,0,5.66-.03,8.49,0,4.28.07,7.34,3.24,7.38,7.72.05,5.88.05,11.77,0,17.66-.03,4.51-2.97,7.69-7.32,7.77-5.74.1-11.47.09-17.21,0-4.31-.07-7.35-3.22-7.42-7.72-.09-5.88-.09-11.77,0-17.66.07-4.63,3.17-7.73,7.59-7.78,2.83-.03,5.66,0,8.49,0Z"/>
  </g>
</svg>